<mxfile host="app.diagrams.net" modified="2021-12-16T09:37:55.321Z" agent="5.0 (Windows NT 10.0; Win64; x64) AppleWebKit/537.36 (KHTML, like Gecko) Chrome/92.0.4515.159 Safari/537.36" etag="2ScQaiZP-rdbEGv5hJ1D" version="15.9.6" type="github" pages="9">
  <diagram id="JrFSPCjuFUnZ7v7BHWO6" name="二叉树">
    <mxGraphModel dx="794" dy="552" grid="1" gridSize="10" guides="1" tooltips="1" connect="1" arrows="1" fold="1" page="1" pageScale="1" pageWidth="192000" pageHeight="108000" math="0" shadow="0">
      <root>
        <mxCell id="0" />
        <mxCell id="1" parent="0" />
        <mxCell id="DQTUmN1sRUq_qriRjcVs-57" value="" style="group" parent="1" vertex="1" connectable="0">
          <mxGeometry x="50" y="30" width="750" height="320" as="geometry" />
        </mxCell>
        <mxCell id="DQTUmN1sRUq_qriRjcVs-56" value="" style="rounded=0;whiteSpace=wrap;html=1;fillColor=#d5e8d4;strokeColor=#82b366;" parent="DQTUmN1sRUq_qriRjcVs-57" vertex="1">
          <mxGeometry width="750" height="320" as="geometry" />
        </mxCell>
        <mxCell id="DQTUmN1sRUq_qriRjcVs-55" value="" style="group" parent="DQTUmN1sRUq_qriRjcVs-57" vertex="1" connectable="0">
          <mxGeometry x="30" y="10" width="700" height="280" as="geometry" />
        </mxCell>
        <mxCell id="DQTUmN1sRUq_qriRjcVs-53" value="" style="group" parent="DQTUmN1sRUq_qriRjcVs-55" vertex="1" connectable="0">
          <mxGeometry y="40" width="700" height="240" as="geometry" />
        </mxCell>
        <mxCell id="DQTUmN1sRUq_qriRjcVs-10" value="column1" style="rounded=0;whiteSpace=wrap;html=1;fillColor=none;" parent="DQTUmN1sRUq_qriRjcVs-53" vertex="1">
          <mxGeometry width="90" height="30" as="geometry" />
        </mxCell>
        <mxCell id="DQTUmN1sRUq_qriRjcVs-11" value="column2" style="rounded=0;whiteSpace=wrap;html=1;fillColor=none;" parent="DQTUmN1sRUq_qriRjcVs-53" vertex="1">
          <mxGeometry x="90" width="90" height="30" as="geometry" />
        </mxCell>
        <mxCell id="DQTUmN1sRUq_qriRjcVs-12" value="1" style="rounded=0;whiteSpace=wrap;html=1;fillColor=none;" parent="DQTUmN1sRUq_qriRjcVs-53" vertex="1">
          <mxGeometry y="30" width="90" height="30" as="geometry" />
        </mxCell>
        <mxCell id="DQTUmN1sRUq_qriRjcVs-13" value="34" style="rounded=0;whiteSpace=wrap;html=1;fillColor=none;" parent="DQTUmN1sRUq_qriRjcVs-53" vertex="1">
          <mxGeometry x="90" y="30" width="90" height="30" as="geometry" />
        </mxCell>
        <mxCell id="DQTUmN1sRUq_qriRjcVs-14" value="2" style="rounded=0;whiteSpace=wrap;html=1;fillColor=none;" parent="DQTUmN1sRUq_qriRjcVs-53" vertex="1">
          <mxGeometry y="60" width="90" height="30" as="geometry" />
        </mxCell>
        <mxCell id="DQTUmN1sRUq_qriRjcVs-15" value="77" style="rounded=0;whiteSpace=wrap;html=1;fillColor=none;" parent="DQTUmN1sRUq_qriRjcVs-53" vertex="1">
          <mxGeometry x="90" y="60" width="90" height="30" as="geometry" />
        </mxCell>
        <mxCell id="DQTUmN1sRUq_qriRjcVs-16" value="3" style="rounded=0;whiteSpace=wrap;html=1;fillColor=none;" parent="DQTUmN1sRUq_qriRjcVs-53" vertex="1">
          <mxGeometry y="90" width="90" height="30" as="geometry" />
        </mxCell>
        <mxCell id="DQTUmN1sRUq_qriRjcVs-17" value="5" style="rounded=0;whiteSpace=wrap;html=1;fillColor=none;" parent="DQTUmN1sRUq_qriRjcVs-53" vertex="1">
          <mxGeometry x="90" y="90" width="90" height="30" as="geometry" />
        </mxCell>
        <mxCell id="DQTUmN1sRUq_qriRjcVs-18" value="4" style="rounded=0;whiteSpace=wrap;html=1;fillColor=none;" parent="DQTUmN1sRUq_qriRjcVs-53" vertex="1">
          <mxGeometry y="120" width="90" height="30" as="geometry" />
        </mxCell>
        <mxCell id="DQTUmN1sRUq_qriRjcVs-19" value="30" style="rounded=0;whiteSpace=wrap;html=1;fillColor=none;" parent="DQTUmN1sRUq_qriRjcVs-53" vertex="1">
          <mxGeometry x="90" y="120" width="90" height="30" as="geometry" />
        </mxCell>
        <mxCell id="DQTUmN1sRUq_qriRjcVs-20" value="5" style="rounded=0;whiteSpace=wrap;html=1;fillColor=none;" parent="DQTUmN1sRUq_qriRjcVs-53" vertex="1">
          <mxGeometry y="150" width="90" height="30" as="geometry" />
        </mxCell>
        <mxCell id="DQTUmN1sRUq_qriRjcVs-21" value="22" style="rounded=0;whiteSpace=wrap;html=1;fillColor=none;" parent="DQTUmN1sRUq_qriRjcVs-53" vertex="1">
          <mxGeometry x="90" y="150" width="90" height="30" as="geometry" />
        </mxCell>
        <mxCell id="DQTUmN1sRUq_qriRjcVs-22" value="6" style="rounded=0;whiteSpace=wrap;html=1;fillColor=none;" parent="DQTUmN1sRUq_qriRjcVs-53" vertex="1">
          <mxGeometry y="180" width="90" height="30" as="geometry" />
        </mxCell>
        <mxCell id="DQTUmN1sRUq_qriRjcVs-23" value="85" style="rounded=0;whiteSpace=wrap;html=1;fillColor=none;" parent="DQTUmN1sRUq_qriRjcVs-53" vertex="1">
          <mxGeometry x="90" y="180" width="90" height="30" as="geometry" />
        </mxCell>
        <mxCell id="DQTUmN1sRUq_qriRjcVs-24" value="7" style="rounded=0;whiteSpace=wrap;html=1;fillColor=none;" parent="DQTUmN1sRUq_qriRjcVs-53" vertex="1">
          <mxGeometry y="210" width="90" height="30" as="geometry" />
        </mxCell>
        <mxCell id="DQTUmN1sRUq_qriRjcVs-25" value="89" style="rounded=0;whiteSpace=wrap;html=1;fillColor=none;" parent="DQTUmN1sRUq_qriRjcVs-53" vertex="1">
          <mxGeometry x="90" y="210" width="90" height="30" as="geometry" />
        </mxCell>
        <mxCell id="DQTUmN1sRUq_qriRjcVs-44" style="edgeStyle=orthogonalEdgeStyle;rounded=0;orthogonalLoop=1;jettySize=auto;html=1;exitX=0;exitY=0.5;exitDx=0;exitDy=0;entryX=1;entryY=0.5;entryDx=0;entryDy=0;" parent="DQTUmN1sRUq_qriRjcVs-53" source="DQTUmN1sRUq_qriRjcVs-26" target="DQTUmN1sRUq_qriRjcVs-13" edge="1">
          <mxGeometry relative="1" as="geometry" />
        </mxCell>
        <mxCell id="DQTUmN1sRUq_qriRjcVs-26" value="34" style="ellipse;whiteSpace=wrap;html=1;aspect=fixed;fillColor=#ffe6cc;strokeColor=#d79b00;" parent="DQTUmN1sRUq_qriRjcVs-53" vertex="1">
          <mxGeometry x="540" y="30" width="30" height="30" as="geometry" />
        </mxCell>
        <mxCell id="DQTUmN1sRUq_qriRjcVs-48" style="edgeStyle=orthogonalEdgeStyle;rounded=0;orthogonalLoop=1;jettySize=auto;html=1;exitX=0.5;exitY=1;exitDx=0;exitDy=0;entryX=1;entryY=0.5;entryDx=0;entryDy=0;" parent="DQTUmN1sRUq_qriRjcVs-53" source="DQTUmN1sRUq_qriRjcVs-27" target="DQTUmN1sRUq_qriRjcVs-15" edge="1">
          <mxGeometry relative="1" as="geometry">
            <Array as="points">
              <mxPoint x="585" y="220" />
              <mxPoint x="375" y="220" />
              <mxPoint x="375" y="75" />
            </Array>
          </mxGeometry>
        </mxCell>
        <mxCell id="DQTUmN1sRUq_qriRjcVs-27" value="77" style="ellipse;whiteSpace=wrap;html=1;aspect=fixed;fillColor=#ffe6cc;strokeColor=#d79b00;" parent="DQTUmN1sRUq_qriRjcVs-53" vertex="1">
          <mxGeometry x="570" y="170" width="30" height="30" as="geometry" />
        </mxCell>
        <mxCell id="DQTUmN1sRUq_qriRjcVs-46" style="edgeStyle=orthogonalEdgeStyle;rounded=0;orthogonalLoop=1;jettySize=auto;html=1;exitX=0;exitY=0.5;exitDx=0;exitDy=0;entryX=1;entryY=0.5;entryDx=0;entryDy=0;" parent="DQTUmN1sRUq_qriRjcVs-53" source="DQTUmN1sRUq_qriRjcVs-28" target="DQTUmN1sRUq_qriRjcVs-17" edge="1">
          <mxGeometry relative="1" as="geometry">
            <Array as="points">
              <mxPoint x="340" y="185" />
              <mxPoint x="340" y="105" />
            </Array>
          </mxGeometry>
        </mxCell>
        <mxCell id="DQTUmN1sRUq_qriRjcVs-28" value="5" style="ellipse;whiteSpace=wrap;html=1;aspect=fixed;fillColor=#ffe6cc;strokeColor=#d79b00;" parent="DQTUmN1sRUq_qriRjcVs-53" vertex="1">
          <mxGeometry x="420" y="170" width="30" height="30" as="geometry" />
        </mxCell>
        <mxCell id="DQTUmN1sRUq_qriRjcVs-47" style="edgeStyle=orthogonalEdgeStyle;rounded=0;orthogonalLoop=1;jettySize=auto;html=1;exitX=0.5;exitY=1;exitDx=0;exitDy=0;entryX=1;entryY=0.75;entryDx=0;entryDy=0;" parent="DQTUmN1sRUq_qriRjcVs-53" source="DQTUmN1sRUq_qriRjcVs-29" target="DQTUmN1sRUq_qriRjcVs-19" edge="1">
          <mxGeometry relative="1" as="geometry">
            <Array as="points">
              <mxPoint x="525" y="210" />
              <mxPoint x="310" y="210" />
              <mxPoint x="310" y="143" />
            </Array>
          </mxGeometry>
        </mxCell>
        <mxCell id="DQTUmN1sRUq_qriRjcVs-29" value="30" style="ellipse;whiteSpace=wrap;html=1;aspect=fixed;fillColor=#ffe6cc;strokeColor=#d79b00;" parent="DQTUmN1sRUq_qriRjcVs-53" vertex="1">
          <mxGeometry x="510" y="170" width="30" height="30" as="geometry" />
        </mxCell>
        <mxCell id="DQTUmN1sRUq_qriRjcVs-40" style="edgeStyle=none;rounded=0;orthogonalLoop=1;jettySize=auto;html=1;exitX=0.5;exitY=1;exitDx=0;exitDy=0;entryX=1;entryY=0;entryDx=0;entryDy=0;" parent="DQTUmN1sRUq_qriRjcVs-53" source="DQTUmN1sRUq_qriRjcVs-30" target="DQTUmN1sRUq_qriRjcVs-28" edge="1">
          <mxGeometry relative="1" as="geometry" />
        </mxCell>
        <mxCell id="DQTUmN1sRUq_qriRjcVs-41" style="edgeStyle=none;rounded=0;orthogonalLoop=1;jettySize=auto;html=1;exitX=0.5;exitY=1;exitDx=0;exitDy=0;entryX=0;entryY=0;entryDx=0;entryDy=0;" parent="DQTUmN1sRUq_qriRjcVs-53" source="DQTUmN1sRUq_qriRjcVs-30" target="DQTUmN1sRUq_qriRjcVs-29" edge="1">
          <mxGeometry relative="1" as="geometry" />
        </mxCell>
        <mxCell id="DQTUmN1sRUq_qriRjcVs-45" style="edgeStyle=orthogonalEdgeStyle;rounded=0;orthogonalLoop=1;jettySize=auto;html=1;exitX=0;exitY=0.5;exitDx=0;exitDy=0;entryX=1;entryY=0.5;entryDx=0;entryDy=0;" parent="DQTUmN1sRUq_qriRjcVs-53" source="DQTUmN1sRUq_qriRjcVs-30" target="DQTUmN1sRUq_qriRjcVs-21" edge="1">
          <mxGeometry relative="1" as="geometry" />
        </mxCell>
        <mxCell id="DQTUmN1sRUq_qriRjcVs-30" value="22" style="ellipse;whiteSpace=wrap;html=1;aspect=fixed;fillColor=#ffe6cc;strokeColor=#d79b00;" parent="DQTUmN1sRUq_qriRjcVs-53" vertex="1">
          <mxGeometry x="460" y="110" width="30" height="30" as="geometry" />
        </mxCell>
        <mxCell id="DQTUmN1sRUq_qriRjcVs-38" style="edgeStyle=none;rounded=0;orthogonalLoop=1;jettySize=auto;html=1;exitX=0.5;exitY=1;exitDx=0;exitDy=0;entryX=1;entryY=0;entryDx=0;entryDy=0;" parent="DQTUmN1sRUq_qriRjcVs-53" source="DQTUmN1sRUq_qriRjcVs-26" target="DQTUmN1sRUq_qriRjcVs-30" edge="1">
          <mxGeometry relative="1" as="geometry" />
        </mxCell>
        <mxCell id="DQTUmN1sRUq_qriRjcVs-42" style="edgeStyle=none;rounded=0;orthogonalLoop=1;jettySize=auto;html=1;exitX=0.5;exitY=1;exitDx=0;exitDy=0;entryX=1;entryY=0;entryDx=0;entryDy=0;" parent="DQTUmN1sRUq_qriRjcVs-53" source="DQTUmN1sRUq_qriRjcVs-31" target="DQTUmN1sRUq_qriRjcVs-27" edge="1">
          <mxGeometry relative="1" as="geometry" />
        </mxCell>
        <mxCell id="DQTUmN1sRUq_qriRjcVs-50" style="edgeStyle=orthogonalEdgeStyle;rounded=0;orthogonalLoop=1;jettySize=auto;html=1;exitX=0.5;exitY=1;exitDx=0;exitDy=0;entryX=1;entryY=0.75;entryDx=0;entryDy=0;" parent="DQTUmN1sRUq_qriRjcVs-53" source="DQTUmN1sRUq_qriRjcVs-31" target="DQTUmN1sRUq_qriRjcVs-23" edge="1">
          <mxGeometry relative="1" as="geometry" />
        </mxCell>
        <mxCell id="DQTUmN1sRUq_qriRjcVs-31" value="85" style="ellipse;whiteSpace=wrap;html=1;aspect=fixed;fillColor=#ffe6cc;strokeColor=#d79b00;" parent="DQTUmN1sRUq_qriRjcVs-53" vertex="1">
          <mxGeometry x="620" y="110" width="30" height="30" as="geometry" />
        </mxCell>
        <mxCell id="DQTUmN1sRUq_qriRjcVs-39" style="edgeStyle=none;rounded=0;orthogonalLoop=1;jettySize=auto;html=1;exitX=0.5;exitY=1;exitDx=0;exitDy=0;entryX=0;entryY=0;entryDx=0;entryDy=0;" parent="DQTUmN1sRUq_qriRjcVs-53" source="DQTUmN1sRUq_qriRjcVs-26" target="DQTUmN1sRUq_qriRjcVs-31" edge="1">
          <mxGeometry relative="1" as="geometry" />
        </mxCell>
        <mxCell id="DQTUmN1sRUq_qriRjcVs-49" style="edgeStyle=orthogonalEdgeStyle;rounded=0;orthogonalLoop=1;jettySize=auto;html=1;exitX=0.5;exitY=1;exitDx=0;exitDy=0;entryX=1;entryY=0.75;entryDx=0;entryDy=0;" parent="DQTUmN1sRUq_qriRjcVs-53" source="DQTUmN1sRUq_qriRjcVs-32" target="DQTUmN1sRUq_qriRjcVs-25" edge="1">
          <mxGeometry relative="1" as="geometry">
            <Array as="points">
              <mxPoint x="685" y="233" />
            </Array>
          </mxGeometry>
        </mxCell>
        <mxCell id="DQTUmN1sRUq_qriRjcVs-32" value="89" style="ellipse;whiteSpace=wrap;html=1;aspect=fixed;fillColor=#ffe6cc;strokeColor=#d79b00;" parent="DQTUmN1sRUq_qriRjcVs-53" vertex="1">
          <mxGeometry x="670" y="170" width="30" height="30" as="geometry" />
        </mxCell>
        <mxCell id="DQTUmN1sRUq_qriRjcVs-43" style="edgeStyle=none;rounded=0;orthogonalLoop=1;jettySize=auto;html=1;exitX=0.5;exitY=1;exitDx=0;exitDy=0;entryX=0;entryY=0;entryDx=0;entryDy=0;" parent="DQTUmN1sRUq_qriRjcVs-53" source="DQTUmN1sRUq_qriRjcVs-31" target="DQTUmN1sRUq_qriRjcVs-32" edge="1">
          <mxGeometry relative="1" as="geometry" />
        </mxCell>
        <mxCell id="DQTUmN1sRUq_qriRjcVs-54" value="&lt;span style=&quot;color: rgb(50 , 50 , 50) ; font-weight: 700 ; background-color: rgba(255 , 255 , 255 , 0.01)&quot;&gt;&lt;font style=&quot;font-size: 24px&quot;&gt;MySql索引数据结构-二叉树&lt;/font&gt;&lt;/span&gt;" style="text;html=1;strokeColor=none;fillColor=none;align=center;verticalAlign=middle;whiteSpace=wrap;rounded=0;" parent="DQTUmN1sRUq_qriRjcVs-55" vertex="1">
          <mxGeometry x="240" width="320" height="60" as="geometry" />
        </mxCell>
      </root>
    </mxGraphModel>
  </diagram>
  <diagram id="B1Vaw5SND4x2m23uvINT" name="BTree">
    <mxGraphModel dx="984" dy="626" grid="1" gridSize="10" guides="1" tooltips="1" connect="1" arrows="1" fold="1" page="1" pageScale="1" pageWidth="192000" pageHeight="108000" math="0" shadow="0">
      <root>
        <mxCell id="7EG1AZBh_cIwp6Ath3Qv-0" />
        <mxCell id="7EG1AZBh_cIwp6Ath3Qv-1" parent="7EG1AZBh_cIwp6Ath3Qv-0" />
        <mxCell id="cA7uVXwBt1M9FzQSns0O-0" value="" style="group" parent="7EG1AZBh_cIwp6Ath3Qv-1" vertex="1" connectable="0">
          <mxGeometry x="40" y="60" width="840" height="350" as="geometry" />
        </mxCell>
        <mxCell id="cA7uVXwBt1M9FzQSns0O-1" value="" style="rounded=0;whiteSpace=wrap;html=1;fillColor=#f5f5f5;strokeColor=#666666;fontColor=#333333;" parent="cA7uVXwBt1M9FzQSns0O-0" vertex="1">
          <mxGeometry width="840" height="350" as="geometry" />
        </mxCell>
        <mxCell id="cA7uVXwBt1M9FzQSns0O-2" value="" style="group" parent="cA7uVXwBt1M9FzQSns0O-0" vertex="1" connectable="0">
          <mxGeometry x="10" y="40" width="810" height="300" as="geometry" />
        </mxCell>
        <mxCell id="cA7uVXwBt1M9FzQSns0O-3" value="" style="group" parent="cA7uVXwBt1M9FzQSns0O-2" vertex="1" connectable="0">
          <mxGeometry y="50" width="810" height="250" as="geometry" />
        </mxCell>
        <mxCell id="cA7uVXwBt1M9FzQSns0O-4" value="" style="rounded=0;whiteSpace=wrap;html=1;" parent="cA7uVXwBt1M9FzQSns0O-3" vertex="1">
          <mxGeometry x="160" width="80" height="30" as="geometry" />
        </mxCell>
        <mxCell id="cA7uVXwBt1M9FzQSns0O-5" value="15" style="rounded=0;whiteSpace=wrap;html=1;fillColor=#d5e8d4;strokeColor=#82b366;" parent="cA7uVXwBt1M9FzQSns0O-3" vertex="1">
          <mxGeometry x="240" width="80" height="30" as="geometry" />
        </mxCell>
        <mxCell id="cA7uVXwBt1M9FzQSns0O-6" value="data" style="rounded=0;whiteSpace=wrap;html=1;fillColor=#dae8fc;strokeColor=#6c8ebf;" parent="cA7uVXwBt1M9FzQSns0O-3" vertex="1">
          <mxGeometry x="240" y="30" width="80" height="30" as="geometry" />
        </mxCell>
        <mxCell id="cA7uVXwBt1M9FzQSns0O-7" value="" style="rounded=0;whiteSpace=wrap;html=1;" parent="cA7uVXwBt1M9FzQSns0O-3" vertex="1">
          <mxGeometry x="320" width="80" height="30" as="geometry" />
        </mxCell>
        <mxCell id="cA7uVXwBt1M9FzQSns0O-8" value="56" style="rounded=0;whiteSpace=wrap;html=1;fillColor=#d5e8d4;strokeColor=#82b366;" parent="cA7uVXwBt1M9FzQSns0O-3" vertex="1">
          <mxGeometry x="400" width="80" height="30" as="geometry" />
        </mxCell>
        <mxCell id="cA7uVXwBt1M9FzQSns0O-9" value="data" style="rounded=0;whiteSpace=wrap;html=1;fillColor=#dae8fc;strokeColor=#6c8ebf;" parent="cA7uVXwBt1M9FzQSns0O-3" vertex="1">
          <mxGeometry x="400" y="30" width="80" height="30" as="geometry" />
        </mxCell>
        <mxCell id="cA7uVXwBt1M9FzQSns0O-10" value="" style="rounded=0;whiteSpace=wrap;html=1;" parent="cA7uVXwBt1M9FzQSns0O-3" vertex="1">
          <mxGeometry x="480" width="80" height="30" as="geometry" />
        </mxCell>
        <mxCell id="cA7uVXwBt1M9FzQSns0O-11" value="77" style="rounded=0;whiteSpace=wrap;html=1;fillColor=#d5e8d4;strokeColor=#82b366;" parent="cA7uVXwBt1M9FzQSns0O-3" vertex="1">
          <mxGeometry x="560" width="80" height="30" as="geometry" />
        </mxCell>
        <mxCell id="cA7uVXwBt1M9FzQSns0O-12" value="data" style="rounded=0;whiteSpace=wrap;html=1;fillColor=#dae8fc;strokeColor=#6c8ebf;" parent="cA7uVXwBt1M9FzQSns0O-3" vertex="1">
          <mxGeometry x="560" y="30" width="80" height="30" as="geometry" />
        </mxCell>
        <mxCell id="cA7uVXwBt1M9FzQSns0O-13" value="" style="rounded=0;whiteSpace=wrap;html=1;" parent="cA7uVXwBt1M9FzQSns0O-3" vertex="1">
          <mxGeometry x="640" width="80" height="30" as="geometry" />
        </mxCell>
        <mxCell id="cA7uVXwBt1M9FzQSns0O-14" value="……" style="rounded=0;whiteSpace=wrap;html=1;" parent="cA7uVXwBt1M9FzQSns0O-3" vertex="1">
          <mxGeometry y="190" width="80" height="30" as="geometry" />
        </mxCell>
        <mxCell id="cA7uVXwBt1M9FzQSns0O-15" value="" style="rounded=0;orthogonalLoop=1;jettySize=auto;html=1;" parent="cA7uVXwBt1M9FzQSns0O-3" source="cA7uVXwBt1M9FzQSns0O-4" target="cA7uVXwBt1M9FzQSns0O-14" edge="1">
          <mxGeometry relative="1" as="geometry" />
        </mxCell>
        <mxCell id="cA7uVXwBt1M9FzQSns0O-16" value="" style="rounded=0;whiteSpace=wrap;html=1;" parent="cA7uVXwBt1M9FzQSns0O-3" vertex="1">
          <mxGeometry x="110" y="190" width="80" height="30" as="geometry" />
        </mxCell>
        <mxCell id="cA7uVXwBt1M9FzQSns0O-17" value="20" style="rounded=0;whiteSpace=wrap;html=1;fillColor=#d5e8d4;strokeColor=#82b366;" parent="cA7uVXwBt1M9FzQSns0O-3" vertex="1">
          <mxGeometry x="190" y="190" width="80" height="30" as="geometry" />
        </mxCell>
        <mxCell id="cA7uVXwBt1M9FzQSns0O-18" value="" style="rounded=0;whiteSpace=wrap;html=1;" parent="cA7uVXwBt1M9FzQSns0O-3" vertex="1">
          <mxGeometry x="270" y="190" width="80" height="30" as="geometry" />
        </mxCell>
        <mxCell id="cA7uVXwBt1M9FzQSns0O-19" value="" style="edgeStyle=none;rounded=0;orthogonalLoop=1;jettySize=auto;html=1;entryX=0.5;entryY=0;entryDx=0;entryDy=0;" parent="cA7uVXwBt1M9FzQSns0O-3" source="cA7uVXwBt1M9FzQSns0O-7" target="cA7uVXwBt1M9FzQSns0O-18" edge="1">
          <mxGeometry relative="1" as="geometry" />
        </mxCell>
        <mxCell id="cA7uVXwBt1M9FzQSns0O-20" value="49" style="rounded=0;whiteSpace=wrap;html=1;fillColor=#d5e8d4;strokeColor=#82b366;" parent="cA7uVXwBt1M9FzQSns0O-3" vertex="1">
          <mxGeometry x="350" y="190" width="80" height="30" as="geometry" />
        </mxCell>
        <mxCell id="cA7uVXwBt1M9FzQSns0O-21" value="data" style="rounded=0;whiteSpace=wrap;html=1;fillColor=#dae8fc;strokeColor=#6c8ebf;" parent="cA7uVXwBt1M9FzQSns0O-3" vertex="1">
          <mxGeometry x="190" y="220" width="80" height="30" as="geometry" />
        </mxCell>
        <mxCell id="cA7uVXwBt1M9FzQSns0O-22" value="data" style="rounded=0;whiteSpace=wrap;html=1;fillColor=#dae8fc;strokeColor=#6c8ebf;" parent="cA7uVXwBt1M9FzQSns0O-3" vertex="1">
          <mxGeometry x="350" y="220" width="80" height="30" as="geometry" />
        </mxCell>
        <mxCell id="cA7uVXwBt1M9FzQSns0O-23" value="" style="rounded=0;whiteSpace=wrap;html=1;" parent="cA7uVXwBt1M9FzQSns0O-3" vertex="1">
          <mxGeometry x="430" y="190" width="80" height="30" as="geometry" />
        </mxCell>
        <mxCell id="cA7uVXwBt1M9FzQSns0O-24" value="……" style="rounded=0;whiteSpace=wrap;html=1;" parent="cA7uVXwBt1M9FzQSns0O-3" vertex="1">
          <mxGeometry x="560" y="190" width="80" height="30" as="geometry" />
        </mxCell>
        <mxCell id="cA7uVXwBt1M9FzQSns0O-25" value="" style="edgeStyle=none;rounded=0;orthogonalLoop=1;jettySize=auto;html=1;" parent="cA7uVXwBt1M9FzQSns0O-3" source="cA7uVXwBt1M9FzQSns0O-10" target="cA7uVXwBt1M9FzQSns0O-24" edge="1">
          <mxGeometry relative="1" as="geometry" />
        </mxCell>
        <mxCell id="cA7uVXwBt1M9FzQSns0O-26" value="……" style="rounded=0;whiteSpace=wrap;html=1;" parent="cA7uVXwBt1M9FzQSns0O-3" vertex="1">
          <mxGeometry x="730" y="190" width="80" height="30" as="geometry" />
        </mxCell>
        <mxCell id="cA7uVXwBt1M9FzQSns0O-27" value="" style="edgeStyle=none;rounded=0;orthogonalLoop=1;jettySize=auto;html=1;" parent="cA7uVXwBt1M9FzQSns0O-3" source="cA7uVXwBt1M9FzQSns0O-13" target="cA7uVXwBt1M9FzQSns0O-26" edge="1">
          <mxGeometry relative="1" as="geometry" />
        </mxCell>
        <mxCell id="cA7uVXwBt1M9FzQSns0O-28" value="&lt;span style=&quot;color: rgb(50 , 50 , 50) ; font-size: 24px ; font-weight: 700 ; background-color: rgba(255 , 255 , 255 , 0.01)&quot;&gt;MySql索引数据结构-BTree&lt;/span&gt;" style="text;html=1;align=center;verticalAlign=middle;resizable=0;points=[];autosize=1;strokeColor=none;" parent="cA7uVXwBt1M9FzQSns0O-2" vertex="1">
          <mxGeometry x="280" width="300" height="20" as="geometry" />
        </mxCell>
      </root>
    </mxGraphModel>
  </diagram>
  <diagram id="M_EtlPDKQ5rp1ehH0YeO" name="B+Tree">
    <mxGraphModel dx="984" dy="626" grid="1" gridSize="10" guides="1" tooltips="1" connect="1" arrows="1" fold="1" page="1" pageScale="1" pageWidth="192000" pageHeight="108000" math="0" shadow="0">
      <root>
        <mxCell id="si9rrpc5HK5yOjleZf8v-0" />
        <mxCell id="si9rrpc5HK5yOjleZf8v-1" parent="si9rrpc5HK5yOjleZf8v-0" />
        <mxCell id="FS14DbBrJroEO-ySBWw7-96" value="" style="group" parent="si9rrpc5HK5yOjleZf8v-1" vertex="1" connectable="0">
          <mxGeometry x="40" y="40" width="990" height="400" as="geometry" />
        </mxCell>
        <mxCell id="FS14DbBrJroEO-ySBWw7-95" value="" style="rounded=0;whiteSpace=wrap;html=1;fillColor=#fff2cc;strokeColor=#d6b656;" parent="FS14DbBrJroEO-ySBWw7-96" vertex="1">
          <mxGeometry width="990" height="400" as="geometry" />
        </mxCell>
        <mxCell id="FS14DbBrJroEO-ySBWw7-94" value="" style="group" parent="FS14DbBrJroEO-ySBWw7-96" vertex="1" connectable="0">
          <mxGeometry x="30" y="20" width="930" height="340" as="geometry" />
        </mxCell>
        <mxCell id="FS14DbBrJroEO-ySBWw7-92" value="" style="group" parent="FS14DbBrJroEO-ySBWw7-94" vertex="1" connectable="0">
          <mxGeometry y="50" width="930" height="290" as="geometry" />
        </mxCell>
        <mxCell id="FS14DbBrJroEO-ySBWw7-29" value="15" style="rounded=0;whiteSpace=wrap;html=1;fillColor=#d5e8d4;strokeColor=#82b366;" parent="FS14DbBrJroEO-ySBWw7-92" vertex="1">
          <mxGeometry x="290" width="80" height="30" as="geometry" />
        </mxCell>
        <mxCell id="FS14DbBrJroEO-ySBWw7-30" value="" style="rounded=0;whiteSpace=wrap;html=1;" parent="FS14DbBrJroEO-ySBWw7-92" vertex="1">
          <mxGeometry x="370" width="80" height="30" as="geometry" />
        </mxCell>
        <mxCell id="FS14DbBrJroEO-ySBWw7-31" value="56" style="rounded=0;whiteSpace=wrap;html=1;fillColor=#d5e8d4;strokeColor=#82b366;" parent="FS14DbBrJroEO-ySBWw7-92" vertex="1">
          <mxGeometry x="450" width="80" height="30" as="geometry" />
        </mxCell>
        <mxCell id="FS14DbBrJroEO-ySBWw7-32" value="" style="rounded=0;whiteSpace=wrap;html=1;" parent="FS14DbBrJroEO-ySBWw7-92" vertex="1">
          <mxGeometry x="530" width="80" height="30" as="geometry" />
        </mxCell>
        <mxCell id="FS14DbBrJroEO-ySBWw7-33" value="77" style="rounded=0;whiteSpace=wrap;html=1;fillColor=#d5e8d4;strokeColor=#82b366;" parent="FS14DbBrJroEO-ySBWw7-92" vertex="1">
          <mxGeometry x="610" width="80" height="30" as="geometry" />
        </mxCell>
        <mxCell id="FS14DbBrJroEO-ySBWw7-34" value="" style="rounded=0;whiteSpace=wrap;html=1;" parent="FS14DbBrJroEO-ySBWw7-92" vertex="1">
          <mxGeometry x="690" width="80" height="30" as="geometry" />
        </mxCell>
        <mxCell id="FS14DbBrJroEO-ySBWw7-35" value="15" style="rounded=0;whiteSpace=wrap;html=1;fillColor=#d5e8d4;strokeColor=#82b366;" parent="FS14DbBrJroEO-ySBWw7-92" vertex="1">
          <mxGeometry x="20" y="110" width="80" height="30" as="geometry" />
        </mxCell>
        <mxCell id="FS14DbBrJroEO-ySBWw7-36" value="" style="rounded=0;whiteSpace=wrap;html=1;" parent="FS14DbBrJroEO-ySBWw7-92" vertex="1">
          <mxGeometry x="100" y="110" width="80" height="30" as="geometry" />
        </mxCell>
        <mxCell id="FS14DbBrJroEO-ySBWw7-37" value="20" style="rounded=0;whiteSpace=wrap;html=1;fillColor=#d5e8d4;strokeColor=#82b366;" parent="FS14DbBrJroEO-ySBWw7-92" vertex="1">
          <mxGeometry x="180" y="110" width="80" height="30" as="geometry" />
        </mxCell>
        <mxCell id="FS14DbBrJroEO-ySBWw7-38" value="" style="rounded=0;whiteSpace=wrap;html=1;" parent="FS14DbBrJroEO-ySBWw7-92" vertex="1">
          <mxGeometry x="260" y="110" width="80" height="30" as="geometry" />
        </mxCell>
        <mxCell id="FS14DbBrJroEO-ySBWw7-41" style="edgeStyle=none;rounded=0;orthogonalLoop=1;jettySize=auto;html=1;exitX=0.5;exitY=1;exitDx=0;exitDy=0;entryX=0.5;entryY=0;entryDx=0;entryDy=0;" parent="FS14DbBrJroEO-ySBWw7-92" source="FS14DbBrJroEO-ySBWw7-30" target="FS14DbBrJroEO-ySBWw7-38" edge="1">
          <mxGeometry relative="1" as="geometry" />
        </mxCell>
        <mxCell id="FS14DbBrJroEO-ySBWw7-39" value="49" style="rounded=0;whiteSpace=wrap;html=1;fillColor=#d5e8d4;strokeColor=#82b366;" parent="FS14DbBrJroEO-ySBWw7-92" vertex="1">
          <mxGeometry x="340" y="110" width="80" height="30" as="geometry" />
        </mxCell>
        <mxCell id="FS14DbBrJroEO-ySBWw7-40" value="" style="rounded=0;whiteSpace=wrap;html=1;" parent="FS14DbBrJroEO-ySBWw7-92" vertex="1">
          <mxGeometry x="420" y="110" width="80" height="30" as="geometry" />
        </mxCell>
        <mxCell id="FS14DbBrJroEO-ySBWw7-54" value="……" style="rounded=0;whiteSpace=wrap;html=1;" parent="FS14DbBrJroEO-ySBWw7-92" vertex="1">
          <mxGeometry x="620" y="110" width="80" height="30" as="geometry" />
        </mxCell>
        <mxCell id="FS14DbBrJroEO-ySBWw7-56" style="edgeStyle=none;rounded=0;orthogonalLoop=1;jettySize=auto;html=1;exitX=0.5;exitY=1;exitDx=0;exitDy=0;entryX=0.5;entryY=0;entryDx=0;entryDy=0;" parent="FS14DbBrJroEO-ySBWw7-92" source="FS14DbBrJroEO-ySBWw7-32" target="FS14DbBrJroEO-ySBWw7-54" edge="1">
          <mxGeometry relative="1" as="geometry" />
        </mxCell>
        <mxCell id="FS14DbBrJroEO-ySBWw7-55" value="……" style="rounded=0;whiteSpace=wrap;html=1;" parent="FS14DbBrJroEO-ySBWw7-92" vertex="1">
          <mxGeometry x="850" y="110" width="80" height="30" as="geometry" />
        </mxCell>
        <mxCell id="FS14DbBrJroEO-ySBWw7-57" style="edgeStyle=none;rounded=0;orthogonalLoop=1;jettySize=auto;html=1;exitX=0.5;exitY=1;exitDx=0;exitDy=0;entryX=0.5;entryY=0;entryDx=0;entryDy=0;" parent="FS14DbBrJroEO-ySBWw7-92" source="FS14DbBrJroEO-ySBWw7-34" target="FS14DbBrJroEO-ySBWw7-55" edge="1">
          <mxGeometry relative="1" as="geometry" />
        </mxCell>
        <mxCell id="FS14DbBrJroEO-ySBWw7-58" value="15" style="rounded=0;whiteSpace=wrap;html=1;fillColor=#d5e8d4;strokeColor=#82b366;" parent="FS14DbBrJroEO-ySBWw7-92" vertex="1">
          <mxGeometry x="20" y="190" width="80" height="30" as="geometry" />
        </mxCell>
        <mxCell id="FS14DbBrJroEO-ySBWw7-59" value="data" style="rounded=0;whiteSpace=wrap;html=1;fillColor=#dae8fc;strokeColor=#6c8ebf;" parent="FS14DbBrJroEO-ySBWw7-92" vertex="1">
          <mxGeometry x="20" y="220" width="80" height="30" as="geometry" />
        </mxCell>
        <mxCell id="FS14DbBrJroEO-ySBWw7-60" value="18" style="rounded=0;whiteSpace=wrap;html=1;fillColor=#d5e8d4;strokeColor=#82b366;" parent="FS14DbBrJroEO-ySBWw7-92" vertex="1">
          <mxGeometry x="100" y="190" width="80" height="30" as="geometry" />
        </mxCell>
        <mxCell id="FS14DbBrJroEO-ySBWw7-72" style="edgeStyle=none;rounded=0;orthogonalLoop=1;jettySize=auto;html=1;exitX=0.5;exitY=1;exitDx=0;exitDy=0;entryX=0;entryY=0;entryDx=0;entryDy=0;" parent="FS14DbBrJroEO-ySBWw7-92" source="FS14DbBrJroEO-ySBWw7-36" target="FS14DbBrJroEO-ySBWw7-60" edge="1">
          <mxGeometry relative="1" as="geometry" />
        </mxCell>
        <mxCell id="FS14DbBrJroEO-ySBWw7-61" value="data" style="rounded=0;whiteSpace=wrap;html=1;fillColor=#dae8fc;strokeColor=#6c8ebf;" parent="FS14DbBrJroEO-ySBWw7-92" vertex="1">
          <mxGeometry x="100" y="220" width="80" height="30" as="geometry" />
        </mxCell>
        <mxCell id="FS14DbBrJroEO-ySBWw7-62" value="20" style="rounded=0;whiteSpace=wrap;html=1;fillColor=#d5e8d4;strokeColor=#82b366;" parent="FS14DbBrJroEO-ySBWw7-92" vertex="1">
          <mxGeometry x="210" y="190" width="80" height="30" as="geometry" />
        </mxCell>
        <mxCell id="FS14DbBrJroEO-ySBWw7-73" style="edgeStyle=none;rounded=0;orthogonalLoop=1;jettySize=auto;html=1;exitX=0.5;exitY=1;exitDx=0;exitDy=0;entryX=1;entryY=0;entryDx=0;entryDy=0;" parent="FS14DbBrJroEO-ySBWw7-92" source="FS14DbBrJroEO-ySBWw7-38" target="FS14DbBrJroEO-ySBWw7-62" edge="1">
          <mxGeometry relative="1" as="geometry" />
        </mxCell>
        <mxCell id="FS14DbBrJroEO-ySBWw7-63" value="data" style="rounded=0;whiteSpace=wrap;html=1;fillColor=#dae8fc;strokeColor=#6c8ebf;" parent="FS14DbBrJroEO-ySBWw7-92" vertex="1">
          <mxGeometry x="210" y="220" width="80" height="30" as="geometry" />
        </mxCell>
        <mxCell id="FS14DbBrJroEO-ySBWw7-64" value="30" style="rounded=0;whiteSpace=wrap;html=1;fillColor=#d5e8d4;strokeColor=#82b366;" parent="FS14DbBrJroEO-ySBWw7-92" vertex="1">
          <mxGeometry x="290" y="190" width="80" height="30" as="geometry" />
        </mxCell>
        <mxCell id="FS14DbBrJroEO-ySBWw7-65" value="data" style="rounded=0;whiteSpace=wrap;html=1;fillColor=#dae8fc;strokeColor=#6c8ebf;" parent="FS14DbBrJroEO-ySBWw7-92" vertex="1">
          <mxGeometry x="290" y="220" width="80" height="30" as="geometry" />
        </mxCell>
        <mxCell id="FS14DbBrJroEO-ySBWw7-66" value="49" style="rounded=0;whiteSpace=wrap;html=1;fillColor=#d5e8d4;strokeColor=#82b366;" parent="FS14DbBrJroEO-ySBWw7-92" vertex="1">
          <mxGeometry x="410" y="190" width="80" height="30" as="geometry" />
        </mxCell>
        <mxCell id="FS14DbBrJroEO-ySBWw7-67" value="data" style="rounded=0;whiteSpace=wrap;html=1;fillColor=#dae8fc;strokeColor=#6c8ebf;" parent="FS14DbBrJroEO-ySBWw7-92" vertex="1">
          <mxGeometry x="410" y="220" width="80" height="30" as="geometry" />
        </mxCell>
        <mxCell id="FS14DbBrJroEO-ySBWw7-68" value="50" style="rounded=0;whiteSpace=wrap;html=1;fillColor=#d5e8d4;strokeColor=#82b366;" parent="FS14DbBrJroEO-ySBWw7-92" vertex="1">
          <mxGeometry x="490" y="190" width="80" height="30" as="geometry" />
        </mxCell>
        <mxCell id="FS14DbBrJroEO-ySBWw7-74" style="edgeStyle=none;rounded=0;orthogonalLoop=1;jettySize=auto;html=1;exitX=0.5;exitY=1;exitDx=0;exitDy=0;entryX=0;entryY=0;entryDx=0;entryDy=0;" parent="FS14DbBrJroEO-ySBWw7-92" source="FS14DbBrJroEO-ySBWw7-40" target="FS14DbBrJroEO-ySBWw7-68" edge="1">
          <mxGeometry relative="1" as="geometry" />
        </mxCell>
        <mxCell id="FS14DbBrJroEO-ySBWw7-69" value="data" style="rounded=0;whiteSpace=wrap;html=1;fillColor=#dae8fc;strokeColor=#6c8ebf;" parent="FS14DbBrJroEO-ySBWw7-92" vertex="1">
          <mxGeometry x="490" y="220" width="80" height="30" as="geometry" />
        </mxCell>
        <mxCell id="FS14DbBrJroEO-ySBWw7-70" value="……" style="rounded=0;whiteSpace=wrap;html=1;fillColor=#d5e8d4;strokeColor=#82b366;" parent="FS14DbBrJroEO-ySBWw7-92" vertex="1">
          <mxGeometry x="690" y="190" width="80" height="30" as="geometry" />
        </mxCell>
        <mxCell id="FS14DbBrJroEO-ySBWw7-82" style="edgeStyle=orthogonalEdgeStyle;rounded=0;orthogonalLoop=1;jettySize=auto;html=1;exitX=1;exitY=0.5;exitDx=0;exitDy=0;entryX=0;entryY=0.5;entryDx=0;entryDy=0;" parent="FS14DbBrJroEO-ySBWw7-92" source="FS14DbBrJroEO-ySBWw7-71" target="FS14DbBrJroEO-ySBWw7-59" edge="1">
          <mxGeometry relative="1" as="geometry">
            <Array as="points">
              <mxPoint x="790" y="235" />
              <mxPoint x="790" y="290" />
              <mxPoint y="290" />
              <mxPoint y="235" />
            </Array>
          </mxGeometry>
        </mxCell>
        <mxCell id="FS14DbBrJroEO-ySBWw7-71" value="……" style="rounded=0;whiteSpace=wrap;html=1;fillColor=#dae8fc;strokeColor=#6c8ebf;" parent="FS14DbBrJroEO-ySBWw7-92" vertex="1">
          <mxGeometry x="690" y="220" width="80" height="30" as="geometry" />
        </mxCell>
        <mxCell id="FS14DbBrJroEO-ySBWw7-75" style="edgeStyle=none;rounded=0;orthogonalLoop=1;jettySize=auto;html=1;exitX=0.5;exitY=1;exitDx=0;exitDy=0;entryX=0.5;entryY=0;entryDx=0;entryDy=0;" parent="FS14DbBrJroEO-ySBWw7-92" source="FS14DbBrJroEO-ySBWw7-54" target="FS14DbBrJroEO-ySBWw7-70" edge="1">
          <mxGeometry relative="1" as="geometry" />
        </mxCell>
        <mxCell id="FS14DbBrJroEO-ySBWw7-88" value="" style="endArrow=classic;startArrow=classic;html=1;exitX=1;exitY=0;exitDx=0;exitDy=0;entryX=0;entryY=0;entryDx=0;entryDy=0;" parent="FS14DbBrJroEO-ySBWw7-92" source="FS14DbBrJroEO-ySBWw7-61" target="FS14DbBrJroEO-ySBWw7-63" edge="1">
          <mxGeometry width="50" height="50" relative="1" as="geometry">
            <mxPoint x="180" y="260" as="sourcePoint" />
            <mxPoint x="230" y="210" as="targetPoint" />
          </mxGeometry>
        </mxCell>
        <mxCell id="FS14DbBrJroEO-ySBWw7-90" value="" style="endArrow=classic;startArrow=classic;html=1;exitX=1;exitY=0;exitDx=0;exitDy=0;" parent="FS14DbBrJroEO-ySBWw7-92" source="FS14DbBrJroEO-ySBWw7-65" edge="1">
          <mxGeometry width="50" height="50" relative="1" as="geometry">
            <mxPoint x="360" y="270" as="sourcePoint" />
            <mxPoint x="410" y="220" as="targetPoint" />
          </mxGeometry>
        </mxCell>
        <mxCell id="FS14DbBrJroEO-ySBWw7-91" value="" style="endArrow=classic;startArrow=classic;html=1;exitX=1;exitY=0;exitDx=0;exitDy=0;entryX=0;entryY=0;entryDx=0;entryDy=0;" parent="FS14DbBrJroEO-ySBWw7-92" source="FS14DbBrJroEO-ySBWw7-69" target="FS14DbBrJroEO-ySBWw7-71" edge="1">
          <mxGeometry width="50" height="50" relative="1" as="geometry">
            <mxPoint x="580" y="260" as="sourcePoint" />
            <mxPoint x="630" y="210" as="targetPoint" />
          </mxGeometry>
        </mxCell>
        <mxCell id="FS14DbBrJroEO-ySBWw7-93" value="&lt;b&gt;&lt;font style=&quot;font-size: 24px&quot;&gt;MySQL索引数据结构----B+Tree&lt;/font&gt;&lt;/b&gt;" style="text;html=1;align=center;verticalAlign=middle;resizable=0;points=[];autosize=1;strokeColor=none;" parent="FS14DbBrJroEO-ySBWw7-94" vertex="1">
          <mxGeometry x="260" width="350" height="20" as="geometry" />
        </mxCell>
      </root>
    </mxGraphModel>
  </diagram>
  <diagram id="0uLSG4tqBf1Q1fTgdY3p" name="Hash表">
    <mxGraphModel dx="557" dy="495" grid="1" gridSize="10" guides="1" tooltips="1" connect="1" arrows="1" fold="1" page="1" pageScale="1" pageWidth="192000" pageHeight="108000" math="0" shadow="0">
      <root>
        <mxCell id="101WF0X9KmjXhXqnLpNo-0" />
        <mxCell id="101WF0X9KmjXhXqnLpNo-1" parent="101WF0X9KmjXhXqnLpNo-0" />
        <mxCell id="101WF0X9KmjXhXqnLpNo-2" value="" style="group" parent="101WF0X9KmjXhXqnLpNo-1" vertex="1" connectable="0">
          <mxGeometry x="60" y="40" width="640" height="300" as="geometry" />
        </mxCell>
        <mxCell id="101WF0X9KmjXhXqnLpNo-3" value="" style="rounded=0;whiteSpace=wrap;html=1;fillColor=#d5e8d4;strokeColor=#82b366;" parent="101WF0X9KmjXhXqnLpNo-2" vertex="1">
          <mxGeometry width="640" height="300" as="geometry" />
        </mxCell>
        <mxCell id="101WF0X9KmjXhXqnLpNo-4" value="" style="group" parent="101WF0X9KmjXhXqnLpNo-2" vertex="1" connectable="0">
          <mxGeometry x="10" y="20" width="580" height="250" as="geometry" />
        </mxCell>
        <mxCell id="101WF0X9KmjXhXqnLpNo-5" value="" style="group" parent="101WF0X9KmjXhXqnLpNo-4" vertex="1" connectable="0">
          <mxGeometry y="40" width="580" height="210" as="geometry" />
        </mxCell>
        <mxCell id="101WF0X9KmjXhXqnLpNo-6" value="0" style="rounded=0;whiteSpace=wrap;html=1;fillColor=#d5e8d4;strokeColor=#82b366;" parent="101WF0X9KmjXhXqnLpNo-5" vertex="1">
          <mxGeometry x="120" width="100" height="30" as="geometry" />
        </mxCell>
        <mxCell id="101WF0X9KmjXhXqnLpNo-7" value="1" style="rounded=0;whiteSpace=wrap;html=1;fillColor=#d5e8d4;strokeColor=#82b366;" parent="101WF0X9KmjXhXqnLpNo-5" vertex="1">
          <mxGeometry x="120" y="30" width="100" height="30" as="geometry" />
        </mxCell>
        <mxCell id="101WF0X9KmjXhXqnLpNo-8" value="2" style="rounded=0;whiteSpace=wrap;html=1;fillColor=#d5e8d4;strokeColor=#82b366;" parent="101WF0X9KmjXhXqnLpNo-5" vertex="1">
          <mxGeometry x="120" y="60" width="100" height="30" as="geometry" />
        </mxCell>
        <mxCell id="101WF0X9KmjXhXqnLpNo-9" value="3" style="rounded=0;whiteSpace=wrap;html=1;fillColor=#d5e8d4;strokeColor=#82b366;" parent="101WF0X9KmjXhXqnLpNo-5" vertex="1">
          <mxGeometry x="120" y="90" width="100" height="30" as="geometry" />
        </mxCell>
        <mxCell id="101WF0X9KmjXhXqnLpNo-10" value="4" style="rounded=0;whiteSpace=wrap;html=1;fillColor=#d5e8d4;strokeColor=#82b366;" parent="101WF0X9KmjXhXqnLpNo-5" vertex="1">
          <mxGeometry x="120" y="120" width="100" height="30" as="geometry" />
        </mxCell>
        <mxCell id="101WF0X9KmjXhXqnLpNo-11" value="5" style="rounded=0;whiteSpace=wrap;html=1;fillColor=#d5e8d4;strokeColor=#82b366;" parent="101WF0X9KmjXhXqnLpNo-5" vertex="1">
          <mxGeometry x="120" y="150" width="100" height="30" as="geometry" />
        </mxCell>
        <mxCell id="101WF0X9KmjXhXqnLpNo-12" value="6" style="rounded=0;whiteSpace=wrap;html=1;fillColor=#d5e8d4;strokeColor=#82b366;" parent="101WF0X9KmjXhXqnLpNo-5" vertex="1">
          <mxGeometry x="120" y="180" width="100" height="30" as="geometry" />
        </mxCell>
        <mxCell id="101WF0X9KmjXhXqnLpNo-13" value="Alice&lt;br&gt;0x56" style="rounded=0;whiteSpace=wrap;html=1;fillColor=#76608a;strokeColor=#432D57;fontColor=#ffffff;" parent="101WF0X9KmjXhXqnLpNo-5" vertex="1">
          <mxGeometry x="300" y="60" width="100" height="30" as="geometry" />
        </mxCell>
        <mxCell id="101WF0X9KmjXhXqnLpNo-14" value="" style="edgeStyle=orthogonalEdgeStyle;rounded=0;orthogonalLoop=1;jettySize=auto;html=1;" parent="101WF0X9KmjXhXqnLpNo-5" source="101WF0X9KmjXhXqnLpNo-8" target="101WF0X9KmjXhXqnLpNo-13" edge="1">
          <mxGeometry relative="1" as="geometry" />
        </mxCell>
        <mxCell id="101WF0X9KmjXhXqnLpNo-15" value="Jim&lt;br&gt;0x6A" style="rounded=0;whiteSpace=wrap;html=1;fillColor=#76608a;strokeColor=#432D57;fontColor=#ffffff;" parent="101WF0X9KmjXhXqnLpNo-5" vertex="1">
          <mxGeometry x="480" y="60" width="100" height="30" as="geometry" />
        </mxCell>
        <mxCell id="101WF0X9KmjXhXqnLpNo-16" value="" style="edgeStyle=orthogonalEdgeStyle;rounded=0;orthogonalLoop=1;jettySize=auto;html=1;fillColor=#76608a;strokeColor=#432D57;" parent="101WF0X9KmjXhXqnLpNo-5" source="101WF0X9KmjXhXqnLpNo-13" target="101WF0X9KmjXhXqnLpNo-15" edge="1">
          <mxGeometry relative="1" as="geometry" />
        </mxCell>
        <mxCell id="101WF0X9KmjXhXqnLpNo-17" value="Tom&lt;br&gt;0x90" style="rounded=0;whiteSpace=wrap;html=1;fillColor=#76608a;strokeColor=#432D57;fontColor=#ffffff;" parent="101WF0X9KmjXhXqnLpNo-5" vertex="1">
          <mxGeometry x="300" y="120" width="100" height="30" as="geometry" />
        </mxCell>
        <mxCell id="101WF0X9KmjXhXqnLpNo-18" value="" style="edgeStyle=orthogonalEdgeStyle;rounded=0;orthogonalLoop=1;jettySize=auto;html=1;" parent="101WF0X9KmjXhXqnLpNo-5" source="101WF0X9KmjXhXqnLpNo-10" target="101WF0X9KmjXhXqnLpNo-17" edge="1">
          <mxGeometry relative="1" as="geometry" />
        </mxCell>
        <mxCell id="101WF0X9KmjXhXqnLpNo-19" value="hash(Alice) = 2&lt;br&gt;hash(Jim) = 2&lt;br&gt;hash(Tom) = 4" style="text;html=1;align=center;verticalAlign=middle;resizable=0;points=[];autosize=1;strokeColor=none;" parent="101WF0X9KmjXhXqnLpNo-5" vertex="1">
          <mxGeometry y="30" width="100" height="50" as="geometry" />
        </mxCell>
        <mxCell id="101WF0X9KmjXhXqnLpNo-20" value="&lt;b&gt;&lt;font style=&quot;font-size: 24px&quot;&gt;MySql 索引数据结构---Hash表&lt;/font&gt;&lt;/b&gt;" style="text;html=1;align=center;verticalAlign=middle;resizable=0;points=[];autosize=1;strokeColor=none;" parent="101WF0X9KmjXhXqnLpNo-4" vertex="1">
          <mxGeometry x="140" width="340" height="20" as="geometry" />
        </mxCell>
      </root>
    </mxGraphModel>
  </diagram>
  <diagram id="BPOaK14HKb60heKYvNvi" name="MYISAM存储引擎索引实现">
    <mxGraphModel dx="557" dy="495" grid="1" gridSize="10" guides="1" tooltips="1" connect="1" arrows="1" fold="1" page="1" pageScale="1" pageWidth="192000" pageHeight="108000" math="0" shadow="0">
      <root>
        <mxCell id="q90lbSeqMUSvA76pZbnU-0" />
        <mxCell id="q90lbSeqMUSvA76pZbnU-1" parent="q90lbSeqMUSvA76pZbnU-0" />
        <mxCell id="q90lbSeqMUSvA76pZbnU-81" value="" style="group" parent="q90lbSeqMUSvA76pZbnU-1" vertex="1" connectable="0">
          <mxGeometry x="40" y="40" width="1030" height="630" as="geometry" />
        </mxCell>
        <mxCell id="q90lbSeqMUSvA76pZbnU-78" value="" style="rounded=0;whiteSpace=wrap;html=1;strokeColor=#d6b656;fillColor=#fff2cc;" parent="q90lbSeqMUSvA76pZbnU-81" vertex="1">
          <mxGeometry width="1030" height="630" as="geometry" />
        </mxCell>
        <mxCell id="q90lbSeqMUSvA76pZbnU-2" value="15" style="rounded=0;whiteSpace=wrap;html=1;fillColor=#d5e8d4;strokeColor=#82b366;" parent="q90lbSeqMUSvA76pZbnU-81" vertex="1">
          <mxGeometry x="280" y="50" width="80" height="30" as="geometry" />
        </mxCell>
        <mxCell id="q90lbSeqMUSvA76pZbnU-3" value="" style="rounded=0;whiteSpace=wrap;html=1;" parent="q90lbSeqMUSvA76pZbnU-81" vertex="1">
          <mxGeometry x="360" y="50" width="80" height="30" as="geometry" />
        </mxCell>
        <mxCell id="q90lbSeqMUSvA76pZbnU-4" value="56" style="rounded=0;whiteSpace=wrap;html=1;fillColor=#d5e8d4;strokeColor=#82b366;" parent="q90lbSeqMUSvA76pZbnU-81" vertex="1">
          <mxGeometry x="440" y="50" width="80" height="30" as="geometry" />
        </mxCell>
        <mxCell id="q90lbSeqMUSvA76pZbnU-5" value="" style="rounded=0;whiteSpace=wrap;html=1;" parent="q90lbSeqMUSvA76pZbnU-81" vertex="1">
          <mxGeometry x="520" y="50" width="80" height="30" as="geometry" />
        </mxCell>
        <mxCell id="q90lbSeqMUSvA76pZbnU-6" value="77" style="rounded=0;whiteSpace=wrap;html=1;fillColor=#d5e8d4;strokeColor=#82b366;" parent="q90lbSeqMUSvA76pZbnU-81" vertex="1">
          <mxGeometry x="600" y="50" width="80" height="30" as="geometry" />
        </mxCell>
        <mxCell id="q90lbSeqMUSvA76pZbnU-7" value="" style="rounded=0;whiteSpace=wrap;html=1;" parent="q90lbSeqMUSvA76pZbnU-81" vertex="1">
          <mxGeometry x="680" y="50" width="80" height="30" as="geometry" />
        </mxCell>
        <mxCell id="q90lbSeqMUSvA76pZbnU-8" value="15" style="rounded=0;whiteSpace=wrap;html=1;fillColor=#d5e8d4;strokeColor=#82b366;" parent="q90lbSeqMUSvA76pZbnU-81" vertex="1">
          <mxGeometry x="20" y="180" width="80" height="30" as="geometry" />
        </mxCell>
        <mxCell id="q90lbSeqMUSvA76pZbnU-9" value="" style="rounded=0;whiteSpace=wrap;html=1;" parent="q90lbSeqMUSvA76pZbnU-81" vertex="1">
          <mxGeometry x="100" y="180" width="80" height="30" as="geometry" />
        </mxCell>
        <mxCell id="q90lbSeqMUSvA76pZbnU-14" style="rounded=0;orthogonalLoop=1;jettySize=auto;html=1;exitX=0.5;exitY=1;exitDx=0;exitDy=0;entryX=0.5;entryY=0;entryDx=0;entryDy=0;" parent="q90lbSeqMUSvA76pZbnU-81" source="q90lbSeqMUSvA76pZbnU-3" target="q90lbSeqMUSvA76pZbnU-9" edge="1">
          <mxGeometry relative="1" as="geometry" />
        </mxCell>
        <mxCell id="q90lbSeqMUSvA76pZbnU-10" value="20" style="rounded=0;whiteSpace=wrap;html=1;fillColor=#d5e8d4;strokeColor=#82b366;" parent="q90lbSeqMUSvA76pZbnU-81" vertex="1">
          <mxGeometry x="180" y="180" width="80" height="30" as="geometry" />
        </mxCell>
        <mxCell id="q90lbSeqMUSvA76pZbnU-11" value="" style="rounded=0;whiteSpace=wrap;html=1;" parent="q90lbSeqMUSvA76pZbnU-81" vertex="1">
          <mxGeometry x="260" y="180" width="80" height="30" as="geometry" />
        </mxCell>
        <mxCell id="q90lbSeqMUSvA76pZbnU-12" value="49" style="rounded=0;whiteSpace=wrap;html=1;fillColor=#d5e8d4;strokeColor=#82b366;" parent="q90lbSeqMUSvA76pZbnU-81" vertex="1">
          <mxGeometry x="340" y="180" width="80" height="30" as="geometry" />
        </mxCell>
        <mxCell id="q90lbSeqMUSvA76pZbnU-13" value="" style="rounded=0;whiteSpace=wrap;html=1;" parent="q90lbSeqMUSvA76pZbnU-81" vertex="1">
          <mxGeometry x="420" y="180" width="80" height="30" as="geometry" />
        </mxCell>
        <mxCell id="q90lbSeqMUSvA76pZbnU-16" value="&lt;b&gt;……&lt;/b&gt;" style="rounded=0;whiteSpace=wrap;html=1;" parent="q90lbSeqMUSvA76pZbnU-81" vertex="1">
          <mxGeometry x="580" y="180" width="80" height="30" as="geometry" />
        </mxCell>
        <mxCell id="q90lbSeqMUSvA76pZbnU-18" style="edgeStyle=none;rounded=0;orthogonalLoop=1;jettySize=auto;html=1;exitX=0.5;exitY=1;exitDx=0;exitDy=0;entryX=0.5;entryY=0;entryDx=0;entryDy=0;" parent="q90lbSeqMUSvA76pZbnU-81" source="q90lbSeqMUSvA76pZbnU-5" target="q90lbSeqMUSvA76pZbnU-16" edge="1">
          <mxGeometry relative="1" as="geometry" />
        </mxCell>
        <mxCell id="q90lbSeqMUSvA76pZbnU-17" value="&lt;b&gt;……&lt;/b&gt;" style="rounded=0;whiteSpace=wrap;html=1;" parent="q90lbSeqMUSvA76pZbnU-81" vertex="1">
          <mxGeometry x="760" y="180" width="80" height="30" as="geometry" />
        </mxCell>
        <mxCell id="q90lbSeqMUSvA76pZbnU-19" style="edgeStyle=none;rounded=0;orthogonalLoop=1;jettySize=auto;html=1;exitX=0.5;exitY=1;exitDx=0;exitDy=0;entryX=0.5;entryY=0;entryDx=0;entryDy=0;" parent="q90lbSeqMUSvA76pZbnU-81" source="q90lbSeqMUSvA76pZbnU-7" target="q90lbSeqMUSvA76pZbnU-17" edge="1">
          <mxGeometry relative="1" as="geometry" />
        </mxCell>
        <mxCell id="q90lbSeqMUSvA76pZbnU-20" value="15" style="rounded=0;whiteSpace=wrap;html=1;fillColor=#d5e8d4;strokeColor=#82b366;" parent="q90lbSeqMUSvA76pZbnU-81" vertex="1">
          <mxGeometry x="20" y="250" width="80" height="30" as="geometry" />
        </mxCell>
        <mxCell id="q90lbSeqMUSvA76pZbnU-21" value="0x07" style="rounded=0;whiteSpace=wrap;html=1;fillColor=#e1d5e7;strokeColor=#9673a6;" parent="q90lbSeqMUSvA76pZbnU-81" vertex="1">
          <mxGeometry x="20" y="280" width="80" height="30" as="geometry" />
        </mxCell>
        <mxCell id="q90lbSeqMUSvA76pZbnU-22" value="18" style="rounded=0;whiteSpace=wrap;html=1;fillColor=#d5e8d4;strokeColor=#82b366;" parent="q90lbSeqMUSvA76pZbnU-81" vertex="1">
          <mxGeometry x="100" y="250" width="80" height="30" as="geometry" />
        </mxCell>
        <mxCell id="q90lbSeqMUSvA76pZbnU-33" style="edgeStyle=none;rounded=0;orthogonalLoop=1;jettySize=auto;html=1;exitX=0.5;exitY=1;exitDx=0;exitDy=0;entryX=0;entryY=0;entryDx=0;entryDy=0;" parent="q90lbSeqMUSvA76pZbnU-81" source="q90lbSeqMUSvA76pZbnU-9" target="q90lbSeqMUSvA76pZbnU-22" edge="1">
          <mxGeometry relative="1" as="geometry" />
        </mxCell>
        <mxCell id="q90lbSeqMUSvA76pZbnU-23" value="0x56" style="rounded=0;whiteSpace=wrap;html=1;fillColor=#e1d5e7;strokeColor=#9673a6;" parent="q90lbSeqMUSvA76pZbnU-81" vertex="1">
          <mxGeometry x="100" y="280" width="80" height="30" as="geometry" />
        </mxCell>
        <mxCell id="q90lbSeqMUSvA76pZbnU-24" value="20" style="rounded=0;whiteSpace=wrap;html=1;fillColor=#d5e8d4;strokeColor=#82b366;" parent="q90lbSeqMUSvA76pZbnU-81" vertex="1">
          <mxGeometry x="230" y="250" width="80" height="30" as="geometry" />
        </mxCell>
        <mxCell id="q90lbSeqMUSvA76pZbnU-25" value="0x6A" style="rounded=0;whiteSpace=wrap;html=1;fillColor=#e1d5e7;strokeColor=#9673a6;" parent="q90lbSeqMUSvA76pZbnU-81" vertex="1">
          <mxGeometry x="230" y="280" width="80" height="30" as="geometry" />
        </mxCell>
        <mxCell id="q90lbSeqMUSvA76pZbnU-38" style="edgeStyle=none;rounded=0;orthogonalLoop=1;jettySize=auto;html=1;exitX=1;exitY=0;exitDx=0;exitDy=0;entryX=0;entryY=0;entryDx=0;entryDy=0;" parent="q90lbSeqMUSvA76pZbnU-81" source="q90lbSeqMUSvA76pZbnU-23" target="q90lbSeqMUSvA76pZbnU-25" edge="1">
          <mxGeometry relative="1" as="geometry" />
        </mxCell>
        <mxCell id="q90lbSeqMUSvA76pZbnU-26" value="30" style="rounded=0;whiteSpace=wrap;html=1;fillColor=#d5e8d4;strokeColor=#82b366;" parent="q90lbSeqMUSvA76pZbnU-81" vertex="1">
          <mxGeometry x="310" y="250" width="80" height="30" as="geometry" />
        </mxCell>
        <mxCell id="q90lbSeqMUSvA76pZbnU-34" style="edgeStyle=none;rounded=0;orthogonalLoop=1;jettySize=auto;html=1;exitX=0.5;exitY=1;exitDx=0;exitDy=0;entryX=0;entryY=0;entryDx=0;entryDy=0;" parent="q90lbSeqMUSvA76pZbnU-81" source="q90lbSeqMUSvA76pZbnU-11" target="q90lbSeqMUSvA76pZbnU-26" edge="1">
          <mxGeometry relative="1" as="geometry" />
        </mxCell>
        <mxCell id="q90lbSeqMUSvA76pZbnU-27" value="0xF3" style="rounded=0;whiteSpace=wrap;html=1;fillColor=#e1d5e7;strokeColor=#9673a6;" parent="q90lbSeqMUSvA76pZbnU-81" vertex="1">
          <mxGeometry x="310" y="280" width="80" height="30" as="geometry" />
        </mxCell>
        <mxCell id="q90lbSeqMUSvA76pZbnU-28" value="49" style="rounded=0;whiteSpace=wrap;html=1;fillColor=#d5e8d4;strokeColor=#82b366;" parent="q90lbSeqMUSvA76pZbnU-81" vertex="1">
          <mxGeometry x="440" y="250" width="80" height="30" as="geometry" />
        </mxCell>
        <mxCell id="q90lbSeqMUSvA76pZbnU-29" value="0x90" style="rounded=0;whiteSpace=wrap;html=1;fillColor=#e1d5e7;strokeColor=#9673a6;" parent="q90lbSeqMUSvA76pZbnU-81" vertex="1">
          <mxGeometry x="440" y="280" width="80" height="30" as="geometry" />
        </mxCell>
        <mxCell id="q90lbSeqMUSvA76pZbnU-39" style="edgeStyle=none;rounded=0;orthogonalLoop=1;jettySize=auto;html=1;exitX=1;exitY=0;exitDx=0;exitDy=0;entryX=0;entryY=0;entryDx=0;entryDy=0;" parent="q90lbSeqMUSvA76pZbnU-81" source="q90lbSeqMUSvA76pZbnU-27" target="q90lbSeqMUSvA76pZbnU-29" edge="1">
          <mxGeometry relative="1" as="geometry" />
        </mxCell>
        <mxCell id="q90lbSeqMUSvA76pZbnU-30" value="50" style="rounded=0;whiteSpace=wrap;html=1;fillColor=#d5e8d4;strokeColor=#82b366;" parent="q90lbSeqMUSvA76pZbnU-81" vertex="1">
          <mxGeometry x="520" y="250" width="80" height="30" as="geometry" />
        </mxCell>
        <mxCell id="q90lbSeqMUSvA76pZbnU-36" style="edgeStyle=none;rounded=0;orthogonalLoop=1;jettySize=auto;html=1;exitX=0.5;exitY=1;exitDx=0;exitDy=0;entryX=0;entryY=0;entryDx=0;entryDy=0;" parent="q90lbSeqMUSvA76pZbnU-81" source="q90lbSeqMUSvA76pZbnU-13" target="q90lbSeqMUSvA76pZbnU-30" edge="1">
          <mxGeometry relative="1" as="geometry" />
        </mxCell>
        <mxCell id="q90lbSeqMUSvA76pZbnU-40" style="edgeStyle=none;rounded=0;orthogonalLoop=1;jettySize=auto;html=1;exitX=1;exitY=0;exitDx=0;exitDy=0;" parent="q90lbSeqMUSvA76pZbnU-81" source="q90lbSeqMUSvA76pZbnU-31" edge="1">
          <mxGeometry relative="1" as="geometry">
            <mxPoint x="640" y="280" as="targetPoint" />
          </mxGeometry>
        </mxCell>
        <mxCell id="q90lbSeqMUSvA76pZbnU-31" value="0x77" style="rounded=0;whiteSpace=wrap;html=1;fillColor=#e1d5e7;strokeColor=#9673a6;" parent="q90lbSeqMUSvA76pZbnU-81" vertex="1">
          <mxGeometry x="520" y="280" width="80" height="30" as="geometry" />
        </mxCell>
        <mxCell id="q90lbSeqMUSvA76pZbnU-32" value="&lt;b&gt;……&lt;/b&gt;" style="text;html=1;align=center;verticalAlign=middle;resizable=0;points=[];autosize=1;strokeColor=none;" parent="q90lbSeqMUSvA76pZbnU-81" vertex="1">
          <mxGeometry x="690" y="270" width="40" height="20" as="geometry" />
        </mxCell>
        <mxCell id="q90lbSeqMUSvA76pZbnU-41" value="Col1" style="rounded=0;whiteSpace=wrap;html=1;fillColor=#eeeeee;fontStyle=1" parent="q90lbSeqMUSvA76pZbnU-81" vertex="1">
          <mxGeometry x="730" y="360" width="70" height="30" as="geometry" />
        </mxCell>
        <mxCell id="q90lbSeqMUSvA76pZbnU-42" value="Col2" style="rounded=0;whiteSpace=wrap;html=1;fillColor=#eeeeee;fontStyle=1" parent="q90lbSeqMUSvA76pZbnU-81" vertex="1">
          <mxGeometry x="800" y="360" width="70" height="30" as="geometry" />
        </mxCell>
        <mxCell id="q90lbSeqMUSvA76pZbnU-43" value="Col3" style="rounded=0;whiteSpace=wrap;html=1;fillColor=#eeeeee;fontStyle=1" parent="q90lbSeqMUSvA76pZbnU-81" vertex="1">
          <mxGeometry x="870" y="360" width="70" height="30" as="geometry" />
        </mxCell>
        <mxCell id="q90lbSeqMUSvA76pZbnU-44" value="15" style="rounded=0;whiteSpace=wrap;html=1;fillColor=#d5e8d4;" parent="q90lbSeqMUSvA76pZbnU-81" vertex="1">
          <mxGeometry x="730" y="390" width="70" height="30" as="geometry" />
        </mxCell>
        <mxCell id="q90lbSeqMUSvA76pZbnU-45" value="34" style="rounded=0;whiteSpace=wrap;html=1;fillColor=#d5e8d4;" parent="q90lbSeqMUSvA76pZbnU-81" vertex="1">
          <mxGeometry x="800" y="390" width="70" height="30" as="geometry" />
        </mxCell>
        <mxCell id="q90lbSeqMUSvA76pZbnU-46" value="Bob" style="rounded=0;whiteSpace=wrap;html=1;fillColor=#d5e8d4;" parent="q90lbSeqMUSvA76pZbnU-81" vertex="1">
          <mxGeometry x="870" y="390" width="70" height="30" as="geometry" />
        </mxCell>
        <mxCell id="q90lbSeqMUSvA76pZbnU-47" value="18" style="rounded=0;whiteSpace=wrap;html=1;fillColor=#d5e8d4;" parent="q90lbSeqMUSvA76pZbnU-81" vertex="1">
          <mxGeometry x="730" y="420" width="70" height="30" as="geometry" />
        </mxCell>
        <mxCell id="q90lbSeqMUSvA76pZbnU-48" value="77" style="rounded=0;whiteSpace=wrap;html=1;fillColor=#d5e8d4;" parent="q90lbSeqMUSvA76pZbnU-81" vertex="1">
          <mxGeometry x="800" y="420" width="70" height="30" as="geometry" />
        </mxCell>
        <mxCell id="q90lbSeqMUSvA76pZbnU-49" value="Alice" style="rounded=0;whiteSpace=wrap;html=1;fillColor=#d5e8d4;" parent="q90lbSeqMUSvA76pZbnU-81" vertex="1">
          <mxGeometry x="870" y="420" width="70" height="30" as="geometry" />
        </mxCell>
        <mxCell id="q90lbSeqMUSvA76pZbnU-50" value="20" style="rounded=0;whiteSpace=wrap;html=1;fillColor=#d5e8d4;" parent="q90lbSeqMUSvA76pZbnU-81" vertex="1">
          <mxGeometry x="730" y="450" width="70" height="30" as="geometry" />
        </mxCell>
        <mxCell id="q90lbSeqMUSvA76pZbnU-51" value="5" style="rounded=0;whiteSpace=wrap;html=1;fillColor=#d5e8d4;" parent="q90lbSeqMUSvA76pZbnU-81" vertex="1">
          <mxGeometry x="800" y="450" width="70" height="30" as="geometry" />
        </mxCell>
        <mxCell id="q90lbSeqMUSvA76pZbnU-52" value="Jim" style="rounded=0;whiteSpace=wrap;html=1;fillColor=#d5e8d4;" parent="q90lbSeqMUSvA76pZbnU-81" vertex="1">
          <mxGeometry x="870" y="450" width="70" height="30" as="geometry" />
        </mxCell>
        <mxCell id="q90lbSeqMUSvA76pZbnU-53" value="30" style="rounded=0;whiteSpace=wrap;html=1;fillColor=#d5e8d4;" parent="q90lbSeqMUSvA76pZbnU-81" vertex="1">
          <mxGeometry x="730" y="480" width="70" height="30" as="geometry" />
        </mxCell>
        <mxCell id="q90lbSeqMUSvA76pZbnU-54" value="91" style="rounded=0;whiteSpace=wrap;html=1;fillColor=#d5e8d4;" parent="q90lbSeqMUSvA76pZbnU-81" vertex="1">
          <mxGeometry x="800" y="480" width="70" height="30" as="geometry" />
        </mxCell>
        <mxCell id="q90lbSeqMUSvA76pZbnU-55" value="Eric" style="rounded=0;whiteSpace=wrap;html=1;fillColor=#d5e8d4;" parent="q90lbSeqMUSvA76pZbnU-81" vertex="1">
          <mxGeometry x="870" y="480" width="70" height="30" as="geometry" />
        </mxCell>
        <mxCell id="q90lbSeqMUSvA76pZbnU-56" value="49" style="rounded=0;whiteSpace=wrap;html=1;fillColor=#d5e8d4;" parent="q90lbSeqMUSvA76pZbnU-81" vertex="1">
          <mxGeometry x="730" y="510" width="70" height="30" as="geometry" />
        </mxCell>
        <mxCell id="q90lbSeqMUSvA76pZbnU-57" value="22" style="rounded=0;whiteSpace=wrap;html=1;fillColor=#d5e8d4;" parent="q90lbSeqMUSvA76pZbnU-81" vertex="1">
          <mxGeometry x="800" y="510" width="70" height="30" as="geometry" />
        </mxCell>
        <mxCell id="q90lbSeqMUSvA76pZbnU-58" value="Tom" style="rounded=0;whiteSpace=wrap;html=1;fillColor=#d5e8d4;" parent="q90lbSeqMUSvA76pZbnU-81" vertex="1">
          <mxGeometry x="870" y="510" width="70" height="30" as="geometry" />
        </mxCell>
        <mxCell id="q90lbSeqMUSvA76pZbnU-59" value="50" style="rounded=0;whiteSpace=wrap;html=1;fillColor=#d5e8d4;" parent="q90lbSeqMUSvA76pZbnU-81" vertex="1">
          <mxGeometry x="730" y="540" width="70" height="30" as="geometry" />
        </mxCell>
        <mxCell id="q90lbSeqMUSvA76pZbnU-60" value="89" style="rounded=0;whiteSpace=wrap;html=1;fillColor=#d5e8d4;" parent="q90lbSeqMUSvA76pZbnU-81" vertex="1">
          <mxGeometry x="800" y="540" width="70" height="30" as="geometry" />
        </mxCell>
        <mxCell id="q90lbSeqMUSvA76pZbnU-61" value="Rose" style="rounded=0;whiteSpace=wrap;html=1;fillColor=#d5e8d4;" parent="q90lbSeqMUSvA76pZbnU-81" vertex="1">
          <mxGeometry x="870" y="540" width="70" height="30" as="geometry" />
        </mxCell>
        <mxCell id="q90lbSeqMUSvA76pZbnU-62" value="&lt;b&gt;……&lt;/b&gt;" style="rounded=0;whiteSpace=wrap;html=1;" parent="q90lbSeqMUSvA76pZbnU-81" vertex="1">
          <mxGeometry x="730" y="570" width="210" height="30" as="geometry" />
        </mxCell>
        <mxCell id="q90lbSeqMUSvA76pZbnU-65" value="0x07" style="text;html=1;align=center;verticalAlign=middle;resizable=0;points=[];autosize=1;strokeColor=none;" parent="q90lbSeqMUSvA76pZbnU-81" vertex="1">
          <mxGeometry x="680" y="395" width="40" height="20" as="geometry" />
        </mxCell>
        <mxCell id="q90lbSeqMUSvA76pZbnU-71" style="edgeStyle=orthogonalEdgeStyle;rounded=0;orthogonalLoop=1;jettySize=auto;html=1;exitX=0.5;exitY=1;exitDx=0;exitDy=0;entryX=0;entryY=0.65;entryDx=0;entryDy=0;entryPerimeter=0;" parent="q90lbSeqMUSvA76pZbnU-81" source="q90lbSeqMUSvA76pZbnU-21" target="q90lbSeqMUSvA76pZbnU-65" edge="1">
          <mxGeometry relative="1" as="geometry">
            <Array as="points">
              <mxPoint x="60" y="408" />
            </Array>
          </mxGeometry>
        </mxCell>
        <mxCell id="q90lbSeqMUSvA76pZbnU-66" value="0x56" style="text;html=1;align=center;verticalAlign=middle;resizable=0;points=[];autosize=1;strokeColor=none;" parent="q90lbSeqMUSvA76pZbnU-81" vertex="1">
          <mxGeometry x="680" y="425" width="40" height="20" as="geometry" />
        </mxCell>
        <mxCell id="q90lbSeqMUSvA76pZbnU-72" style="edgeStyle=orthogonalEdgeStyle;rounded=0;orthogonalLoop=1;jettySize=auto;html=1;exitX=0.5;exitY=1;exitDx=0;exitDy=0;entryX=0;entryY=0.75;entryDx=0;entryDy=0;entryPerimeter=0;" parent="q90lbSeqMUSvA76pZbnU-81" source="q90lbSeqMUSvA76pZbnU-23" target="q90lbSeqMUSvA76pZbnU-66" edge="1">
          <mxGeometry relative="1" as="geometry" />
        </mxCell>
        <mxCell id="q90lbSeqMUSvA76pZbnU-67" value="0x6A" style="text;html=1;align=center;verticalAlign=middle;resizable=0;points=[];autosize=1;strokeColor=none;" parent="q90lbSeqMUSvA76pZbnU-81" vertex="1">
          <mxGeometry x="680" y="455" width="40" height="20" as="geometry" />
        </mxCell>
        <mxCell id="q90lbSeqMUSvA76pZbnU-73" style="edgeStyle=orthogonalEdgeStyle;rounded=0;orthogonalLoop=1;jettySize=auto;html=1;exitX=0.5;exitY=1;exitDx=0;exitDy=0;entryX=0;entryY=0.55;entryDx=0;entryDy=0;entryPerimeter=0;" parent="q90lbSeqMUSvA76pZbnU-81" source="q90lbSeqMUSvA76pZbnU-25" target="q90lbSeqMUSvA76pZbnU-67" edge="1">
          <mxGeometry relative="1" as="geometry" />
        </mxCell>
        <mxCell id="q90lbSeqMUSvA76pZbnU-68" value="0xF3" style="text;html=1;align=center;verticalAlign=middle;resizable=0;points=[];autosize=1;strokeColor=none;" parent="q90lbSeqMUSvA76pZbnU-81" vertex="1">
          <mxGeometry x="680" y="485" width="40" height="20" as="geometry" />
        </mxCell>
        <mxCell id="q90lbSeqMUSvA76pZbnU-74" style="edgeStyle=orthogonalEdgeStyle;rounded=0;orthogonalLoop=1;jettySize=auto;html=1;exitX=0.5;exitY=1;exitDx=0;exitDy=0;entryX=-0.025;entryY=0.65;entryDx=0;entryDy=0;entryPerimeter=0;" parent="q90lbSeqMUSvA76pZbnU-81" source="q90lbSeqMUSvA76pZbnU-27" target="q90lbSeqMUSvA76pZbnU-68" edge="1">
          <mxGeometry relative="1" as="geometry" />
        </mxCell>
        <mxCell id="q90lbSeqMUSvA76pZbnU-69" value="0x90" style="text;html=1;align=center;verticalAlign=middle;resizable=0;points=[];autosize=1;strokeColor=none;" parent="q90lbSeqMUSvA76pZbnU-81" vertex="1">
          <mxGeometry x="680" y="515" width="40" height="20" as="geometry" />
        </mxCell>
        <mxCell id="q90lbSeqMUSvA76pZbnU-76" style="edgeStyle=orthogonalEdgeStyle;rounded=0;orthogonalLoop=1;jettySize=auto;html=1;exitX=0.5;exitY=1;exitDx=0;exitDy=0;entryX=-0.025;entryY=0.55;entryDx=0;entryDy=0;entryPerimeter=0;" parent="q90lbSeqMUSvA76pZbnU-81" source="q90lbSeqMUSvA76pZbnU-29" target="q90lbSeqMUSvA76pZbnU-69" edge="1">
          <mxGeometry relative="1" as="geometry" />
        </mxCell>
        <mxCell id="q90lbSeqMUSvA76pZbnU-70" value="0x77" style="text;html=1;align=center;verticalAlign=middle;resizable=0;points=[];autosize=1;strokeColor=none;" parent="q90lbSeqMUSvA76pZbnU-81" vertex="1">
          <mxGeometry x="680" y="545" width="40" height="20" as="geometry" />
        </mxCell>
        <mxCell id="q90lbSeqMUSvA76pZbnU-77" style="edgeStyle=orthogonalEdgeStyle;rounded=0;orthogonalLoop=1;jettySize=auto;html=1;exitX=0.5;exitY=1;exitDx=0;exitDy=0;entryX=-0.025;entryY=0.6;entryDx=0;entryDy=0;entryPerimeter=0;" parent="q90lbSeqMUSvA76pZbnU-81" source="q90lbSeqMUSvA76pZbnU-31" target="q90lbSeqMUSvA76pZbnU-70" edge="1">
          <mxGeometry relative="1" as="geometry" />
        </mxCell>
        <mxCell id="q90lbSeqMUSvA76pZbnU-79" value="Text" style="text;html=1;strokeColor=none;fillColor=none;align=center;verticalAlign=middle;whiteSpace=wrap;rounded=0;" parent="q90lbSeqMUSvA76pZbnU-81" vertex="1">
          <mxGeometry x="520" y="210" width="40" height="20" as="geometry" />
        </mxCell>
        <mxCell id="q90lbSeqMUSvA76pZbnU-80" value="&lt;b&gt;&lt;font style=&quot;font-size: 24px&quot;&gt;MYISAM存储引擎索引实现&lt;/font&gt;&lt;/b&gt;" style="text;html=1;strokeColor=none;fillColor=none;align=center;verticalAlign=middle;whiteSpace=wrap;rounded=0;" parent="q90lbSeqMUSvA76pZbnU-81" vertex="1">
          <mxGeometry x="360" y="10" width="305" height="20" as="geometry" />
        </mxCell>
      </root>
    </mxGraphModel>
  </diagram>
  <diagram id="r6iPnHi3Dd3M_i44tozy" name="InnoDB存储引擎索引实现">
    <mxGraphModel dx="794" dy="552" grid="1" gridSize="10" guides="1" tooltips="1" connect="1" arrows="1" fold="1" page="1" pageScale="1" pageWidth="192000" pageHeight="108000" math="0" shadow="0">
      <root>
        <mxCell id="VVwzmVqbEACxPIBnO1t0-0" />
        <mxCell id="VVwzmVqbEACxPIBnO1t0-1" parent="VVwzmVqbEACxPIBnO1t0-0" />
        <mxCell id="VVwzmVqbEACxPIBnO1t0-47" value="" style="group" parent="VVwzmVqbEACxPIBnO1t0-1" vertex="1" connectable="0">
          <mxGeometry x="30" y="30" width="910" height="400" as="geometry" />
        </mxCell>
        <mxCell id="VVwzmVqbEACxPIBnO1t0-45" value="" style="rounded=0;whiteSpace=wrap;html=1;strokeColor=#d6b656;fillColor=#fff2cc;" parent="VVwzmVqbEACxPIBnO1t0-47" vertex="1">
          <mxGeometry width="910" height="400" as="geometry" />
        </mxCell>
        <mxCell id="VVwzmVqbEACxPIBnO1t0-2" value="15" style="rounded=0;whiteSpace=wrap;html=1;strokeColor=#82b366;fillColor=#d5e8d4;" parent="VVwzmVqbEACxPIBnO1t0-47" vertex="1">
          <mxGeometry x="290" y="50" width="70" height="30" as="geometry" />
        </mxCell>
        <mxCell id="VVwzmVqbEACxPIBnO1t0-3" value="" style="rounded=0;whiteSpace=wrap;html=1;strokeColor=#000000;" parent="VVwzmVqbEACxPIBnO1t0-47" vertex="1">
          <mxGeometry x="360" y="50" width="70" height="30" as="geometry" />
        </mxCell>
        <mxCell id="VVwzmVqbEACxPIBnO1t0-4" value="56" style="rounded=0;whiteSpace=wrap;html=1;strokeColor=#82b366;fillColor=#d5e8d4;" parent="VVwzmVqbEACxPIBnO1t0-47" vertex="1">
          <mxGeometry x="430" y="50" width="70" height="30" as="geometry" />
        </mxCell>
        <mxCell id="VVwzmVqbEACxPIBnO1t0-5" value="" style="rounded=0;whiteSpace=wrap;html=1;strokeColor=#000000;" parent="VVwzmVqbEACxPIBnO1t0-47" vertex="1">
          <mxGeometry x="500" y="50" width="70" height="30" as="geometry" />
        </mxCell>
        <mxCell id="VVwzmVqbEACxPIBnO1t0-6" value="77" style="rounded=0;whiteSpace=wrap;html=1;strokeColor=#82b366;fillColor=#d5e8d4;" parent="VVwzmVqbEACxPIBnO1t0-47" vertex="1">
          <mxGeometry x="570" y="50" width="70" height="30" as="geometry" />
        </mxCell>
        <mxCell id="VVwzmVqbEACxPIBnO1t0-7" value="" style="rounded=0;whiteSpace=wrap;html=1;strokeColor=#000000;" parent="VVwzmVqbEACxPIBnO1t0-47" vertex="1">
          <mxGeometry x="640" y="50" width="70" height="30" as="geometry" />
        </mxCell>
        <mxCell id="VVwzmVqbEACxPIBnO1t0-8" value="15" style="rounded=0;whiteSpace=wrap;html=1;strokeColor=#82b366;fillColor=#d5e8d4;" parent="VVwzmVqbEACxPIBnO1t0-47" vertex="1">
          <mxGeometry x="90" y="190" width="70" height="30" as="geometry" />
        </mxCell>
        <mxCell id="VVwzmVqbEACxPIBnO1t0-9" value="" style="rounded=0;whiteSpace=wrap;html=1;strokeColor=#000000;" parent="VVwzmVqbEACxPIBnO1t0-47" vertex="1">
          <mxGeometry x="160" y="190" width="70" height="30" as="geometry" />
        </mxCell>
        <mxCell id="VVwzmVqbEACxPIBnO1t0-10" value="20" style="rounded=0;whiteSpace=wrap;html=1;strokeColor=#82b366;fillColor=#d5e8d4;" parent="VVwzmVqbEACxPIBnO1t0-47" vertex="1">
          <mxGeometry x="230" y="190" width="70" height="30" as="geometry" />
        </mxCell>
        <mxCell id="VVwzmVqbEACxPIBnO1t0-11" value="" style="rounded=0;whiteSpace=wrap;html=1;strokeColor=#000000;" parent="VVwzmVqbEACxPIBnO1t0-47" vertex="1">
          <mxGeometry x="300" y="190" width="70" height="30" as="geometry" />
        </mxCell>
        <mxCell id="VVwzmVqbEACxPIBnO1t0-14" style="rounded=0;orthogonalLoop=1;jettySize=auto;html=1;exitX=0.5;exitY=1;exitDx=0;exitDy=0;entryX=0.5;entryY=0;entryDx=0;entryDy=0;" parent="VVwzmVqbEACxPIBnO1t0-47" source="VVwzmVqbEACxPIBnO1t0-3" target="VVwzmVqbEACxPIBnO1t0-11" edge="1">
          <mxGeometry relative="1" as="geometry" />
        </mxCell>
        <mxCell id="VVwzmVqbEACxPIBnO1t0-12" value="49" style="rounded=0;whiteSpace=wrap;html=1;strokeColor=#82b366;fillColor=#d5e8d4;" parent="VVwzmVqbEACxPIBnO1t0-47" vertex="1">
          <mxGeometry x="370" y="190" width="70" height="30" as="geometry" />
        </mxCell>
        <mxCell id="VVwzmVqbEACxPIBnO1t0-13" value="" style="rounded=0;whiteSpace=wrap;html=1;strokeColor=#000000;" parent="VVwzmVqbEACxPIBnO1t0-47" vertex="1">
          <mxGeometry x="440" y="190" width="70" height="30" as="geometry" />
        </mxCell>
        <mxCell id="VVwzmVqbEACxPIBnO1t0-15" value="……" style="rounded=0;whiteSpace=wrap;html=1;strokeColor=#000000;fontStyle=1" parent="VVwzmVqbEACxPIBnO1t0-47" vertex="1">
          <mxGeometry x="560" y="190" width="70" height="30" as="geometry" />
        </mxCell>
        <mxCell id="VVwzmVqbEACxPIBnO1t0-17" style="edgeStyle=none;rounded=0;orthogonalLoop=1;jettySize=auto;html=1;exitX=0.5;exitY=1;exitDx=0;exitDy=0;entryX=0.5;entryY=0;entryDx=0;entryDy=0;" parent="VVwzmVqbEACxPIBnO1t0-47" source="VVwzmVqbEACxPIBnO1t0-5" target="VVwzmVqbEACxPIBnO1t0-15" edge="1">
          <mxGeometry relative="1" as="geometry" />
        </mxCell>
        <mxCell id="VVwzmVqbEACxPIBnO1t0-16" value="……" style="rounded=0;whiteSpace=wrap;html=1;strokeColor=#000000;fontStyle=1" parent="VVwzmVqbEACxPIBnO1t0-47" vertex="1">
          <mxGeometry x="690" y="190" width="70" height="30" as="geometry" />
        </mxCell>
        <mxCell id="VVwzmVqbEACxPIBnO1t0-18" style="edgeStyle=none;rounded=0;orthogonalLoop=1;jettySize=auto;html=1;exitX=0.5;exitY=1;exitDx=0;exitDy=0;entryX=0.5;entryY=0;entryDx=0;entryDy=0;" parent="VVwzmVqbEACxPIBnO1t0-47" source="VVwzmVqbEACxPIBnO1t0-7" target="VVwzmVqbEACxPIBnO1t0-16" edge="1">
          <mxGeometry relative="1" as="geometry" />
        </mxCell>
        <mxCell id="VVwzmVqbEACxPIBnO1t0-19" value="15" style="rounded=0;whiteSpace=wrap;html=1;strokeColor=#82b366;fillColor=#d5e8d4;" parent="VVwzmVqbEACxPIBnO1t0-47" vertex="1">
          <mxGeometry x="30" y="280" width="70" height="30" as="geometry" />
        </mxCell>
        <mxCell id="VVwzmVqbEACxPIBnO1t0-20" value="34" style="rounded=0;whiteSpace=wrap;html=1;strokeColor=#6c8ebf;fillColor=#dae8fc;" parent="VVwzmVqbEACxPIBnO1t0-47" vertex="1">
          <mxGeometry x="30" y="310" width="70" height="30" as="geometry" />
        </mxCell>
        <mxCell id="VVwzmVqbEACxPIBnO1t0-21" value="Bob" style="rounded=0;whiteSpace=wrap;html=1;strokeColor=#6c8ebf;fillColor=#dae8fc;" parent="VVwzmVqbEACxPIBnO1t0-47" vertex="1">
          <mxGeometry x="30" y="340" width="70" height="30" as="geometry" />
        </mxCell>
        <mxCell id="VVwzmVqbEACxPIBnO1t0-22" value="18" style="rounded=0;whiteSpace=wrap;html=1;strokeColor=#82b366;fillColor=#d5e8d4;" parent="VVwzmVqbEACxPIBnO1t0-47" vertex="1">
          <mxGeometry x="100" y="280" width="70" height="30" as="geometry" />
        </mxCell>
        <mxCell id="VVwzmVqbEACxPIBnO1t0-41" style="edgeStyle=none;rounded=0;orthogonalLoop=1;jettySize=auto;html=1;exitX=0.5;exitY=1;exitDx=0;exitDy=0;entryX=0;entryY=0;entryDx=0;entryDy=0;" parent="VVwzmVqbEACxPIBnO1t0-47" source="VVwzmVqbEACxPIBnO1t0-9" target="VVwzmVqbEACxPIBnO1t0-22" edge="1">
          <mxGeometry relative="1" as="geometry" />
        </mxCell>
        <mxCell id="VVwzmVqbEACxPIBnO1t0-23" value="77" style="rounded=0;whiteSpace=wrap;html=1;strokeColor=#6c8ebf;fillColor=#dae8fc;" parent="VVwzmVqbEACxPIBnO1t0-47" vertex="1">
          <mxGeometry x="100" y="310" width="70" height="30" as="geometry" />
        </mxCell>
        <mxCell id="VVwzmVqbEACxPIBnO1t0-24" value="Alice" style="rounded=0;whiteSpace=wrap;html=1;strokeColor=#6c8ebf;fillColor=#dae8fc;" parent="VVwzmVqbEACxPIBnO1t0-47" vertex="1">
          <mxGeometry x="100" y="340" width="70" height="30" as="geometry" />
        </mxCell>
        <mxCell id="VVwzmVqbEACxPIBnO1t0-25" value="20" style="rounded=0;whiteSpace=wrap;html=1;strokeColor=#82b366;fillColor=#d5e8d4;" parent="VVwzmVqbEACxPIBnO1t0-47" vertex="1">
          <mxGeometry x="220" y="280" width="70" height="30" as="geometry" />
        </mxCell>
        <mxCell id="VVwzmVqbEACxPIBnO1t0-26" value="5" style="rounded=0;whiteSpace=wrap;html=1;strokeColor=#6c8ebf;fillColor=#dae8fc;" parent="VVwzmVqbEACxPIBnO1t0-47" vertex="1">
          <mxGeometry x="220" y="310" width="70" height="30" as="geometry" />
        </mxCell>
        <mxCell id="VVwzmVqbEACxPIBnO1t0-27" value="Jim" style="rounded=0;whiteSpace=wrap;html=1;strokeColor=#6c8ebf;fillColor=#dae8fc;" parent="VVwzmVqbEACxPIBnO1t0-47" vertex="1">
          <mxGeometry x="220" y="340" width="70" height="30" as="geometry" />
        </mxCell>
        <mxCell id="VVwzmVqbEACxPIBnO1t0-28" value="30" style="rounded=0;whiteSpace=wrap;html=1;strokeColor=#82b366;fillColor=#d5e8d4;" parent="VVwzmVqbEACxPIBnO1t0-47" vertex="1">
          <mxGeometry x="290" y="280" width="70" height="30" as="geometry" />
        </mxCell>
        <mxCell id="VVwzmVqbEACxPIBnO1t0-42" style="edgeStyle=none;rounded=0;orthogonalLoop=1;jettySize=auto;html=1;exitX=0.5;exitY=1;exitDx=0;exitDy=0;entryX=0;entryY=0;entryDx=0;entryDy=0;" parent="VVwzmVqbEACxPIBnO1t0-47" source="VVwzmVqbEACxPIBnO1t0-11" target="VVwzmVqbEACxPIBnO1t0-28" edge="1">
          <mxGeometry relative="1" as="geometry" />
        </mxCell>
        <mxCell id="VVwzmVqbEACxPIBnO1t0-29" value="91" style="rounded=0;whiteSpace=wrap;html=1;strokeColor=#6c8ebf;fillColor=#dae8fc;" parent="VVwzmVqbEACxPIBnO1t0-47" vertex="1">
          <mxGeometry x="290" y="310" width="70" height="30" as="geometry" />
        </mxCell>
        <mxCell id="VVwzmVqbEACxPIBnO1t0-30" value="Eric" style="rounded=0;whiteSpace=wrap;html=1;strokeColor=#6c8ebf;fillColor=#dae8fc;" parent="VVwzmVqbEACxPIBnO1t0-47" vertex="1">
          <mxGeometry x="290" y="340" width="70" height="30" as="geometry" />
        </mxCell>
        <mxCell id="VVwzmVqbEACxPIBnO1t0-31" value="49" style="rounded=0;whiteSpace=wrap;html=1;strokeColor=#82b366;fillColor=#d5e8d4;" parent="VVwzmVqbEACxPIBnO1t0-47" vertex="1">
          <mxGeometry x="405" y="280" width="70" height="30" as="geometry" />
        </mxCell>
        <mxCell id="VVwzmVqbEACxPIBnO1t0-32" value="22" style="rounded=0;whiteSpace=wrap;html=1;strokeColor=#6c8ebf;fillColor=#dae8fc;" parent="VVwzmVqbEACxPIBnO1t0-47" vertex="1">
          <mxGeometry x="405" y="310" width="70" height="30" as="geometry" />
        </mxCell>
        <mxCell id="VVwzmVqbEACxPIBnO1t0-33" value="Tom" style="rounded=0;whiteSpace=wrap;html=1;strokeColor=#6c8ebf;fillColor=#dae8fc;" parent="VVwzmVqbEACxPIBnO1t0-47" vertex="1">
          <mxGeometry x="405" y="340" width="70" height="30" as="geometry" />
        </mxCell>
        <mxCell id="VVwzmVqbEACxPIBnO1t0-34" value="50" style="rounded=0;whiteSpace=wrap;html=1;strokeColor=#82b366;fillColor=#d5e8d4;" parent="VVwzmVqbEACxPIBnO1t0-47" vertex="1">
          <mxGeometry x="475" y="280" width="70" height="30" as="geometry" />
        </mxCell>
        <mxCell id="VVwzmVqbEACxPIBnO1t0-35" value="89" style="rounded=0;whiteSpace=wrap;html=1;strokeColor=#6c8ebf;fillColor=#dae8fc;" parent="VVwzmVqbEACxPIBnO1t0-47" vertex="1">
          <mxGeometry x="475" y="310" width="70" height="30" as="geometry" />
        </mxCell>
        <mxCell id="VVwzmVqbEACxPIBnO1t0-36" value="Rose" style="rounded=0;whiteSpace=wrap;html=1;strokeColor=#6c8ebf;fillColor=#dae8fc;" parent="VVwzmVqbEACxPIBnO1t0-47" vertex="1">
          <mxGeometry x="475" y="340" width="70" height="30" as="geometry" />
        </mxCell>
        <mxCell id="VVwzmVqbEACxPIBnO1t0-37" value="" style="endArrow=classic;startArrow=classic;html=1;exitX=1;exitY=0;exitDx=0;exitDy=0;entryX=0;entryY=0;entryDx=0;entryDy=0;" parent="VVwzmVqbEACxPIBnO1t0-47" source="VVwzmVqbEACxPIBnO1t0-24" target="VVwzmVqbEACxPIBnO1t0-27" edge="1">
          <mxGeometry width="50" height="50" relative="1" as="geometry">
            <mxPoint x="170" y="450" as="sourcePoint" />
            <mxPoint x="220" y="400" as="targetPoint" />
          </mxGeometry>
        </mxCell>
        <mxCell id="VVwzmVqbEACxPIBnO1t0-43" style="edgeStyle=none;rounded=0;orthogonalLoop=1;jettySize=auto;html=1;exitX=0.5;exitY=1;exitDx=0;exitDy=0;entryX=0;entryY=0;entryDx=0;entryDy=0;" parent="VVwzmVqbEACxPIBnO1t0-47" source="VVwzmVqbEACxPIBnO1t0-13" target="VVwzmVqbEACxPIBnO1t0-34" edge="1">
          <mxGeometry relative="1" as="geometry" />
        </mxCell>
        <mxCell id="VVwzmVqbEACxPIBnO1t0-38" value="" style="endArrow=classic;startArrow=classic;html=1;exitX=1;exitY=0;exitDx=0;exitDy=0;entryX=0.071;entryY=0;entryDx=0;entryDy=0;entryPerimeter=0;" parent="VVwzmVqbEACxPIBnO1t0-47" source="VVwzmVqbEACxPIBnO1t0-30" target="VVwzmVqbEACxPIBnO1t0-33" edge="1">
          <mxGeometry width="50" height="50" relative="1" as="geometry">
            <mxPoint x="360" y="420" as="sourcePoint" />
            <mxPoint x="400" y="340" as="targetPoint" />
            <Array as="points">
              <mxPoint x="390" y="340" />
            </Array>
          </mxGeometry>
        </mxCell>
        <mxCell id="VVwzmVqbEACxPIBnO1t0-39" value="" style="endArrow=classic;startArrow=classic;html=1;" parent="VVwzmVqbEACxPIBnO1t0-47" edge="1">
          <mxGeometry width="50" height="50" relative="1" as="geometry">
            <mxPoint x="545" y="340" as="sourcePoint" />
            <mxPoint x="595" y="340" as="targetPoint" />
          </mxGeometry>
        </mxCell>
        <mxCell id="VVwzmVqbEACxPIBnO1t0-40" value="&lt;b&gt;……&lt;/b&gt;" style="text;html=1;align=center;verticalAlign=middle;resizable=0;points=[];autosize=1;strokeColor=none;" parent="VVwzmVqbEACxPIBnO1t0-47" vertex="1">
          <mxGeometry x="650" y="320" width="40" height="20" as="geometry" />
        </mxCell>
        <mxCell id="VVwzmVqbEACxPIBnO1t0-46" value="&lt;b&gt;&lt;font style=&quot;font-size: 24px&quot;&gt;InnoDB存储引擎索引实现&lt;/font&gt;&lt;/b&gt;" style="text;html=1;strokeColor=none;fillColor=none;align=center;verticalAlign=middle;whiteSpace=wrap;rounded=0;" parent="VVwzmVqbEACxPIBnO1t0-47" vertex="1">
          <mxGeometry x="360" y="10" width="300" height="20" as="geometry" />
        </mxCell>
      </root>
    </mxGraphModel>
  </diagram>
  <diagram id="Em6_IwZdFLTvoJL7Frha" name="SQL执行流程">
    <mxGraphModel dx="794" dy="552" grid="1" gridSize="10" guides="1" tooltips="1" connect="1" arrows="1" fold="1" page="1" pageScale="1" pageWidth="192000" pageHeight="108000" math="0" shadow="0">
      <root>
        <mxCell id="WRosnkCNY8e6L1ODtH_T-0" />
        <mxCell id="WRosnkCNY8e6L1ODtH_T-1" parent="WRosnkCNY8e6L1ODtH_T-0" />
        <mxCell id="WRosnkCNY8e6L1ODtH_T-45" value="" style="edgeStyle=orthogonalEdgeStyle;rounded=0;orthogonalLoop=1;jettySize=auto;html=1;dashed=1;" parent="WRosnkCNY8e6L1ODtH_T-1" source="WRosnkCNY8e6L1ODtH_T-43" edge="1">
          <mxGeometry relative="1" as="geometry">
            <mxPoint x="800" y="585" as="targetPoint" />
          </mxGeometry>
        </mxCell>
        <mxCell id="WRosnkCNY8e6L1ODtH_T-43" value="" style="rounded=0;whiteSpace=wrap;html=1;dashed=1;strokeWidth=3;strokeColor=#FF9933;" parent="WRosnkCNY8e6L1ODtH_T-1" vertex="1">
          <mxGeometry x="280" y="540" width="440" height="90" as="geometry" />
        </mxCell>
        <mxCell id="WRosnkCNY8e6L1ODtH_T-18" value="" style="rounded=0;whiteSpace=wrap;html=1;dashed=1;strokeColor=#FF9933;strokeWidth=3;" parent="WRosnkCNY8e6L1ODtH_T-1" vertex="1">
          <mxGeometry x="280" y="160" width="440" height="350" as="geometry" />
        </mxCell>
        <mxCell id="WRosnkCNY8e6L1ODtH_T-5" value="" style="edgeStyle=orthogonalEdgeStyle;rounded=0;orthogonalLoop=1;jettySize=auto;html=1;" parent="WRosnkCNY8e6L1ODtH_T-1" source="WRosnkCNY8e6L1ODtH_T-2" edge="1">
          <mxGeometry relative="1" as="geometry">
            <mxPoint x="469" y="200" as="targetPoint" />
          </mxGeometry>
        </mxCell>
        <mxCell id="WRosnkCNY8e6L1ODtH_T-2" value="" style="outlineConnect=0;fontColor=#232F3E;gradientColor=none;fillColor=#3399FF;strokeColor=none;dashed=0;verticalLabelPosition=bottom;verticalAlign=top;align=center;html=1;fontSize=12;fontStyle=0;aspect=fixed;pointerEvents=1;shape=mxgraph.aws4.client;" parent="WRosnkCNY8e6L1ODtH_T-1" vertex="1">
          <mxGeometry x="430" y="60" width="78" height="76" as="geometry" />
        </mxCell>
        <mxCell id="WRosnkCNY8e6L1ODtH_T-3" value="MySQL客户端" style="text;html=1;strokeColor=none;fillColor=none;align=center;verticalAlign=middle;whiteSpace=wrap;rounded=0;" parent="WRosnkCNY8e6L1ODtH_T-1" vertex="1">
          <mxGeometry x="110" y="88" width="90" height="20" as="geometry" />
        </mxCell>
        <mxCell id="WRosnkCNY8e6L1ODtH_T-10" style="edgeStyle=orthogonalEdgeStyle;rounded=0;orthogonalLoop=1;jettySize=auto;html=1;exitX=0.5;exitY=1;exitDx=0;exitDy=0;" parent="WRosnkCNY8e6L1ODtH_T-1" source="WRosnkCNY8e6L1ODtH_T-6" target="WRosnkCNY8e6L1ODtH_T-7" edge="1">
          <mxGeometry relative="1" as="geometry" />
        </mxCell>
        <mxCell id="WRosnkCNY8e6L1ODtH_T-13" style="edgeStyle=orthogonalEdgeStyle;rounded=0;orthogonalLoop=1;jettySize=auto;html=1;exitX=0.5;exitY=1;exitDx=0;exitDy=0;entryX=0.5;entryY=0;entryDx=0;entryDy=0;" parent="WRosnkCNY8e6L1ODtH_T-1" source="WRosnkCNY8e6L1ODtH_T-6" target="WRosnkCNY8e6L1ODtH_T-12" edge="1">
          <mxGeometry relative="1" as="geometry" />
        </mxCell>
        <mxCell id="WRosnkCNY8e6L1ODtH_T-29" value="" style="edgeStyle=orthogonalEdgeStyle;rounded=0;orthogonalLoop=1;jettySize=auto;html=1;dashed=1;" parent="WRosnkCNY8e6L1ODtH_T-1" source="WRosnkCNY8e6L1ODtH_T-6" target="WRosnkCNY8e6L1ODtH_T-28" edge="1">
          <mxGeometry relative="1" as="geometry" />
        </mxCell>
        <mxCell id="WRosnkCNY8e6L1ODtH_T-6" value="连接器" style="rounded=0;whiteSpace=wrap;html=1;fillColor=#3399FF;" parent="WRosnkCNY8e6L1ODtH_T-1" vertex="1">
          <mxGeometry x="409" y="200" width="121" height="30" as="geometry" />
        </mxCell>
        <mxCell id="WRosnkCNY8e6L1ODtH_T-8" value="客户端" style="text;html=1;strokeColor=none;fillColor=none;align=center;verticalAlign=middle;whiteSpace=wrap;rounded=0;" parent="WRosnkCNY8e6L1ODtH_T-1" vertex="1">
          <mxGeometry x="520" y="80" width="40" height="20" as="geometry" />
        </mxCell>
        <mxCell id="WRosnkCNY8e6L1ODtH_T-11" value="" style="group" parent="WRosnkCNY8e6L1ODtH_T-1" vertex="1" connectable="0">
          <mxGeometry x="319" y="315" width="90" height="90" as="geometry" />
        </mxCell>
        <mxCell id="WRosnkCNY8e6L1ODtH_T-7" value="" style="shape=mxgraph.cisco.directors.content_engine_(cache_director);html=1;pointerEvents=1;dashed=0;fillColor=#036897;strokeColor=#ffffff;strokeWidth=2;verticalLabelPosition=bottom;verticalAlign=top;align=center;outlineConnect=0;" parent="WRosnkCNY8e6L1ODtH_T-11" vertex="1">
          <mxGeometry width="90" height="64" as="geometry" />
        </mxCell>
        <mxCell id="WRosnkCNY8e6L1ODtH_T-9" value="查询缓存" style="text;html=1;align=center;verticalAlign=middle;resizable=0;points=[];autosize=1;strokeColor=none;" parent="WRosnkCNY8e6L1ODtH_T-11" vertex="1">
          <mxGeometry x="15" y="70" width="60" height="20" as="geometry" />
        </mxCell>
        <mxCell id="WRosnkCNY8e6L1ODtH_T-15" value="" style="edgeStyle=orthogonalEdgeStyle;rounded=0;orthogonalLoop=1;jettySize=auto;html=1;" parent="WRosnkCNY8e6L1ODtH_T-1" source="WRosnkCNY8e6L1ODtH_T-12" target="WRosnkCNY8e6L1ODtH_T-14" edge="1">
          <mxGeometry relative="1" as="geometry" />
        </mxCell>
        <mxCell id="WRosnkCNY8e6L1ODtH_T-27" value="" style="edgeStyle=orthogonalEdgeStyle;rounded=0;orthogonalLoop=1;jettySize=auto;html=1;dashed=1;" parent="WRosnkCNY8e6L1ODtH_T-1" source="WRosnkCNY8e6L1ODtH_T-12" target="WRosnkCNY8e6L1ODtH_T-26" edge="1">
          <mxGeometry relative="1" as="geometry" />
        </mxCell>
        <mxCell id="WRosnkCNY8e6L1ODtH_T-12" value="语法分析器" style="rounded=0;whiteSpace=wrap;html=1;fillColor=#3399FF;" parent="WRosnkCNY8e6L1ODtH_T-1" vertex="1">
          <mxGeometry x="529" y="315" width="111" height="35" as="geometry" />
        </mxCell>
        <mxCell id="WRosnkCNY8e6L1ODtH_T-17" value="" style="edgeStyle=orthogonalEdgeStyle;rounded=0;orthogonalLoop=1;jettySize=auto;html=1;" parent="WRosnkCNY8e6L1ODtH_T-1" source="WRosnkCNY8e6L1ODtH_T-14" target="WRosnkCNY8e6L1ODtH_T-16" edge="1">
          <mxGeometry relative="1" as="geometry" />
        </mxCell>
        <mxCell id="WRosnkCNY8e6L1ODtH_T-31" value="" style="edgeStyle=orthogonalEdgeStyle;rounded=0;orthogonalLoop=1;jettySize=auto;html=1;dashed=1;" parent="WRosnkCNY8e6L1ODtH_T-1" source="WRosnkCNY8e6L1ODtH_T-14" target="WRosnkCNY8e6L1ODtH_T-30" edge="1">
          <mxGeometry relative="1" as="geometry" />
        </mxCell>
        <mxCell id="WRosnkCNY8e6L1ODtH_T-14" value="优化器" style="rounded=0;whiteSpace=wrap;html=1;fillColor=#3399FF;" parent="WRosnkCNY8e6L1ODtH_T-1" vertex="1">
          <mxGeometry x="529" y="380" width="111" height="35" as="geometry" />
        </mxCell>
        <mxCell id="WRosnkCNY8e6L1ODtH_T-33" value="" style="edgeStyle=orthogonalEdgeStyle;rounded=0;orthogonalLoop=1;jettySize=auto;html=1;dashed=1;" parent="WRosnkCNY8e6L1ODtH_T-1" source="WRosnkCNY8e6L1ODtH_T-16" target="WRosnkCNY8e6L1ODtH_T-32" edge="1">
          <mxGeometry relative="1" as="geometry" />
        </mxCell>
        <mxCell id="WRosnkCNY8e6L1ODtH_T-16" value="执行器" style="rounded=0;whiteSpace=wrap;html=1;fillColor=#3399FF;" parent="WRosnkCNY8e6L1ODtH_T-1" vertex="1">
          <mxGeometry x="529" y="450" width="111" height="35" as="geometry" />
        </mxCell>
        <mxCell id="WRosnkCNY8e6L1ODtH_T-26" value="词法分析，语法分析" style="rounded=0;whiteSpace=wrap;html=1;fillColor=#ffff88;strokeColor=#36393d;" parent="WRosnkCNY8e6L1ODtH_T-1" vertex="1">
          <mxGeometry x="800" y="315" width="130.5" height="35" as="geometry" />
        </mxCell>
        <mxCell id="WRosnkCNY8e6L1ODtH_T-28" value="管理连接与权限校验" style="rounded=0;whiteSpace=wrap;html=1;fillColor=#ffff88;strokeColor=#36393d;" parent="WRosnkCNY8e6L1ODtH_T-1" vertex="1">
          <mxGeometry x="800" y="200" width="130.5" height="30" as="geometry" />
        </mxCell>
        <mxCell id="WRosnkCNY8e6L1ODtH_T-30" value="执行计划生成索引选择" style="rounded=0;whiteSpace=wrap;html=1;fillColor=#ffff88;strokeColor=#36393d;" parent="WRosnkCNY8e6L1ODtH_T-1" vertex="1">
          <mxGeometry x="800" y="380" width="130.5" height="35" as="geometry" />
        </mxCell>
        <mxCell id="WRosnkCNY8e6L1ODtH_T-32" value="调用引擎接口获取查询结果" style="rounded=0;whiteSpace=wrap;html=1;fillColor=#ffff88;strokeColor=#36393d;" parent="WRosnkCNY8e6L1ODtH_T-1" vertex="1">
          <mxGeometry x="800" y="450" width="130.5" height="35" as="geometry" />
        </mxCell>
        <mxCell id="WRosnkCNY8e6L1ODtH_T-34" value="Server层" style="text;html=1;align=center;verticalAlign=middle;resizable=0;points=[];autosize=1;strokeColor=none;" parent="WRosnkCNY8e6L1ODtH_T-1" vertex="1">
          <mxGeometry x="125" y="300" width="60" height="20" as="geometry" />
        </mxCell>
        <mxCell id="WRosnkCNY8e6L1ODtH_T-35" value="" style="strokeColor=#dddddd;shadow=1;strokeWidth=1;rounded=1;absoluteArcSize=1;arcSize=2;dashed=1;fillColor=#3399FF;" parent="WRosnkCNY8e6L1ODtH_T-1" vertex="1">
          <mxGeometry x="299" y="560" width="111" height="50" as="geometry" />
        </mxCell>
        <mxCell id="WRosnkCNY8e6L1ODtH_T-36" value="&lt;b&gt;&lt;font color=&quot;#000000&quot;&gt;InnoDB&lt;/font&gt;&lt;/b&gt;" style="dashed=0;connectable=0;html=1;fillColor=#5184F3;strokeColor=none;shape=mxgraph.gcp2.hexIcon;prIcon=compute_engine;part=1;labelPosition=right;verticalLabelPosition=middle;align=left;verticalAlign=middle;spacingLeft=5;fontColor=#999999;fontSize=12;" parent="WRosnkCNY8e6L1ODtH_T-35" vertex="1">
          <mxGeometry y="0.5" width="44" height="39" relative="1" as="geometry">
            <mxPoint x="5" y="-19.5" as="offset" />
          </mxGeometry>
        </mxCell>
        <mxCell id="WRosnkCNY8e6L1ODtH_T-39" value="" style="strokeColor=#dddddd;shadow=1;strokeWidth=1;rounded=1;absoluteArcSize=1;arcSize=2;dashed=1;fillColor=#3399FF;" parent="WRosnkCNY8e6L1ODtH_T-1" vertex="1">
          <mxGeometry x="441" y="560" width="120" height="50" as="geometry" />
        </mxCell>
        <mxCell id="WRosnkCNY8e6L1ODtH_T-40" value="&lt;font color=&quot;#000000&quot;&gt;&lt;b&gt;MYISAM&lt;/b&gt;&lt;/font&gt;" style="dashed=0;connectable=0;html=1;fillColor=#5184F3;strokeColor=none;shape=mxgraph.gcp2.hexIcon;prIcon=app_engine;part=1;labelPosition=right;verticalLabelPosition=middle;align=left;verticalAlign=middle;spacingLeft=5;fontColor=#999999;fontSize=12;" parent="WRosnkCNY8e6L1ODtH_T-39" vertex="1">
          <mxGeometry y="0.5" width="44" height="39" relative="1" as="geometry">
            <mxPoint x="5" y="-19.5" as="offset" />
          </mxGeometry>
        </mxCell>
        <mxCell id="WRosnkCNY8e6L1ODtH_T-41" value="" style="strokeColor=#dddddd;shadow=1;strokeWidth=1;rounded=1;absoluteArcSize=1;arcSize=2;dashed=1;fillColor=#3399FF;" parent="WRosnkCNY8e6L1ODtH_T-1" vertex="1">
          <mxGeometry x="591" y="560" width="110" height="50" as="geometry" />
        </mxCell>
        <mxCell id="WRosnkCNY8e6L1ODtH_T-42" value="&lt;b&gt;&lt;font color=&quot;#000000&quot;&gt;Memory&lt;/font&gt;&lt;/b&gt;" style="dashed=0;connectable=0;html=1;fillColor=#5184F3;strokeColor=none;shape=mxgraph.gcp2.hexIcon;prIcon=placeholder;part=1;labelPosition=right;verticalLabelPosition=middle;align=left;verticalAlign=middle;spacingLeft=5;fontColor=#999999;fontSize=12;" parent="WRosnkCNY8e6L1ODtH_T-41" vertex="1">
          <mxGeometry y="0.5" width="44" height="39" relative="1" as="geometry">
            <mxPoint x="5" y="-19.5" as="offset" />
          </mxGeometry>
        </mxCell>
        <mxCell id="WRosnkCNY8e6L1ODtH_T-46" value="读写磁盘，数据结构化存储的实现" style="rounded=0;whiteSpace=wrap;html=1;fillColor=#ffff88;strokeColor=#36393d;" parent="WRosnkCNY8e6L1ODtH_T-1" vertex="1">
          <mxGeometry x="800" y="567.5" width="130.5" height="35" as="geometry" />
        </mxCell>
        <mxCell id="WRosnkCNY8e6L1ODtH_T-47" value="引擎层" style="text;html=1;align=center;verticalAlign=middle;resizable=0;points=[];autosize=1;strokeColor=none;" parent="WRosnkCNY8e6L1ODtH_T-1" vertex="1">
          <mxGeometry x="135" y="570" width="50" height="20" as="geometry" />
        </mxCell>
      </root>
    </mxGraphModel>
  </diagram>
  <diagram id="7nva4QkU3Op7TidOFPW9" name="undo日志版本链与read view机制详解">
    <mxGraphModel dx="193248" dy="686" grid="1" gridSize="10" guides="1" tooltips="1" connect="1" arrows="1" fold="1" page="1" pageScale="1" pageWidth="192000" pageHeight="108000" math="0" shadow="0">
      <root>
        <mxCell id="Ct21ZAAm-CWYSVT3wcQW-0" />
        <mxCell id="Ct21ZAAm-CWYSVT3wcQW-1" parent="Ct21ZAAm-CWYSVT3wcQW-0" />
        <mxCell id="Ct21ZAAm-CWYSVT3wcQW-2" value="account表" style="text;html=1;align=center;verticalAlign=middle;resizable=0;points=[];autosize=1;strokeColor=none;" parent="Ct21ZAAm-CWYSVT3wcQW-1" vertex="1">
          <mxGeometry x="440" y="70" width="70" height="20" as="geometry" />
        </mxCell>
        <mxCell id="Ct21ZAAm-CWYSVT3wcQW-3" value="" style="shape=table;startSize=0;container=1;collapsible=0;childLayout=tableLayout;" parent="Ct21ZAAm-CWYSVT3wcQW-1" vertex="1">
          <mxGeometry x="455" y="100" width="320" height="40" as="geometry" />
        </mxCell>
        <mxCell id="Ct21ZAAm-CWYSVT3wcQW-4" value="" style="shape=partialRectangle;collapsible=0;dropTarget=0;pointerEvents=0;fillColor=none;top=0;left=0;bottom=0;right=0;points=[[0,0.5],[1,0.5]];portConstraint=eastwest;" parent="Ct21ZAAm-CWYSVT3wcQW-3" vertex="1">
          <mxGeometry width="320" height="20" as="geometry" />
        </mxCell>
        <mxCell id="Ct21ZAAm-CWYSVT3wcQW-5" value="id" style="shape=partialRectangle;html=1;whiteSpace=wrap;connectable=0;overflow=hidden;top=0;left=0;bottom=0;right=0;borderColor=#000000;fillColor=#CCCCCC;strokeWidth=1;opacity=70;" parent="Ct21ZAAm-CWYSVT3wcQW-4" vertex="1">
          <mxGeometry width="77" height="20" as="geometry" />
        </mxCell>
        <mxCell id="Ct21ZAAm-CWYSVT3wcQW-6" value="name" style="shape=partialRectangle;html=1;whiteSpace=wrap;connectable=0;overflow=hidden;top=0;left=0;bottom=0;right=0;gradientColor=#b3b3b3;fillColor=#CCCCCC;strokeWidth=1;opacity=70;" parent="Ct21ZAAm-CWYSVT3wcQW-4" vertex="1">
          <mxGeometry x="77" width="83" height="20" as="geometry" />
        </mxCell>
        <mxCell id="Ct21ZAAm-CWYSVT3wcQW-7" value="trx_id" style="shape=partialRectangle;html=1;whiteSpace=wrap;connectable=0;overflow=hidden;top=0;left=0;bottom=0;right=0;gradientColor=#b3b3b3;fillColor=#CCCCCC;strokeWidth=1;opacity=70;" parent="Ct21ZAAm-CWYSVT3wcQW-4" vertex="1">
          <mxGeometry x="160" width="80" height="20" as="geometry" />
        </mxCell>
        <mxCell id="Ct21ZAAm-CWYSVT3wcQW-8" value="roll_pointer" style="shape=partialRectangle;html=1;whiteSpace=wrap;connectable=0;overflow=hidden;top=0;left=0;bottom=0;right=0;gradientColor=#b3b3b3;fillColor=#CCCCCC;strokeWidth=1;opacity=70;" parent="Ct21ZAAm-CWYSVT3wcQW-4" vertex="1">
          <mxGeometry x="240" width="80" height="20" as="geometry" />
        </mxCell>
        <mxCell id="Ct21ZAAm-CWYSVT3wcQW-9" value="" style="shape=partialRectangle;collapsible=0;dropTarget=0;pointerEvents=0;fillColor=none;top=0;left=0;bottom=0;right=0;points=[[0,0.5],[1,0.5]];portConstraint=eastwest;" parent="Ct21ZAAm-CWYSVT3wcQW-3" vertex="1">
          <mxGeometry y="20" width="320" height="20" as="geometry" />
        </mxCell>
        <mxCell id="Ct21ZAAm-CWYSVT3wcQW-10" value="" style="shape=partialRectangle;html=1;whiteSpace=wrap;connectable=0;overflow=hidden;fillColor=none;top=0;left=0;bottom=0;right=0;" parent="Ct21ZAAm-CWYSVT3wcQW-9" vertex="1">
          <mxGeometry width="77" height="20" as="geometry" />
        </mxCell>
        <mxCell id="Ct21ZAAm-CWYSVT3wcQW-11" value="" style="shape=partialRectangle;html=1;whiteSpace=wrap;connectable=0;overflow=hidden;fillColor=none;top=0;left=0;bottom=0;right=0;" parent="Ct21ZAAm-CWYSVT3wcQW-9" vertex="1">
          <mxGeometry x="77" width="83" height="20" as="geometry" />
        </mxCell>
        <mxCell id="Ct21ZAAm-CWYSVT3wcQW-12" value="" style="shape=partialRectangle;html=1;whiteSpace=wrap;connectable=0;overflow=hidden;fillColor=none;top=0;left=0;bottom=0;right=0;" parent="Ct21ZAAm-CWYSVT3wcQW-9" vertex="1">
          <mxGeometry x="160" width="80" height="20" as="geometry" />
        </mxCell>
        <mxCell id="Ct21ZAAm-CWYSVT3wcQW-13" value="" style="shape=partialRectangle;html=1;whiteSpace=wrap;connectable=0;overflow=hidden;fillColor=none;top=0;left=0;bottom=0;right=0;" parent="Ct21ZAAm-CWYSVT3wcQW-9" vertex="1">
          <mxGeometry x="240" width="80" height="20" as="geometry" />
        </mxCell>
        <mxCell id="Ct21ZAAm-CWYSVT3wcQW-15" value="1" style="rounded=0;whiteSpace=wrap;html=1;startSize=0;strokeColor=#000000;strokeWidth=2;fillColor=#FF9999;" parent="Ct21ZAAm-CWYSVT3wcQW-1" vertex="1">
          <mxGeometry x="455" y="550" width="80" height="30" as="geometry" />
        </mxCell>
        <mxCell id="Ct21ZAAm-CWYSVT3wcQW-16" value="lilei" style="rounded=0;whiteSpace=wrap;html=1;startSize=0;strokeColor=#000000;strokeWidth=2;fillColor=#FF9999;" parent="Ct21ZAAm-CWYSVT3wcQW-1" vertex="1">
          <mxGeometry x="535" y="550" width="80" height="30" as="geometry" />
        </mxCell>
        <mxCell id="Ct21ZAAm-CWYSVT3wcQW-17" value="80" style="rounded=0;whiteSpace=wrap;html=1;startSize=0;strokeColor=#000000;strokeWidth=2;fillColor=#FF9999;" parent="Ct21ZAAm-CWYSVT3wcQW-1" vertex="1">
          <mxGeometry x="615" y="550" width="80" height="30" as="geometry" />
        </mxCell>
        <mxCell id="Ct21ZAAm-CWYSVT3wcQW-18" value="" style="rounded=0;whiteSpace=wrap;html=1;startSize=0;strokeColor=#000000;strokeWidth=2;fillColor=#FF9999;" parent="Ct21ZAAm-CWYSVT3wcQW-1" vertex="1">
          <mxGeometry x="695" y="550" width="80" height="30" as="geometry" />
        </mxCell>
        <mxCell id="Ct21ZAAm-CWYSVT3wcQW-19" value="1" style="rounded=0;whiteSpace=wrap;html=1;startSize=0;strokeColor=#000000;strokeWidth=2;fillColor=#FF9999;" parent="Ct21ZAAm-CWYSVT3wcQW-1" vertex="1">
          <mxGeometry x="455" y="480" width="80" height="30" as="geometry" />
        </mxCell>
        <mxCell id="Ct21ZAAm-CWYSVT3wcQW-20" value="lilei300" style="rounded=0;whiteSpace=wrap;html=1;startSize=0;strokeColor=#000000;strokeWidth=2;fillColor=#FF9999;" parent="Ct21ZAAm-CWYSVT3wcQW-1" vertex="1">
          <mxGeometry x="535" y="480" width="80" height="30" as="geometry" />
        </mxCell>
        <mxCell id="Ct21ZAAm-CWYSVT3wcQW-21" value="300" style="rounded=0;whiteSpace=wrap;html=1;startSize=0;strokeColor=#000000;strokeWidth=2;fillColor=#FF9999;" parent="Ct21ZAAm-CWYSVT3wcQW-1" vertex="1">
          <mxGeometry x="615" y="480" width="80" height="30" as="geometry" />
        </mxCell>
        <mxCell id="Ct21ZAAm-CWYSVT3wcQW-27" value="" style="edgeStyle=orthogonalEdgeStyle;rounded=0;orthogonalLoop=1;jettySize=auto;html=1;startSize=0;entryX=0;entryY=0.5;entryDx=0;entryDy=0;strokeWidth=2;" parent="Ct21ZAAm-CWYSVT3wcQW-1" source="Ct21ZAAm-CWYSVT3wcQW-22" target="Ct21ZAAm-CWYSVT3wcQW-15" edge="1">
          <mxGeometry relative="1" as="geometry">
            <Array as="points">
              <mxPoint x="735" y="530" />
              <mxPoint x="435" y="530" />
              <mxPoint x="435" y="565" />
            </Array>
          </mxGeometry>
        </mxCell>
        <mxCell id="Ct21ZAAm-CWYSVT3wcQW-22" value="" style="rounded=0;whiteSpace=wrap;html=1;startSize=0;strokeColor=#000000;strokeWidth=2;fillColor=#FF9999;" parent="Ct21ZAAm-CWYSVT3wcQW-1" vertex="1">
          <mxGeometry x="695" y="480" width="80" height="30" as="geometry" />
        </mxCell>
        <mxCell id="Ct21ZAAm-CWYSVT3wcQW-23" value="1" style="rounded=0;whiteSpace=wrap;html=1;startSize=0;strokeColor=#000000;strokeWidth=2;fillColor=#FF9999;" parent="Ct21ZAAm-CWYSVT3wcQW-1" vertex="1">
          <mxGeometry x="455" y="410" width="80" height="30" as="geometry" />
        </mxCell>
        <mxCell id="Ct21ZAAm-CWYSVT3wcQW-24" value="lilei1" style="rounded=0;whiteSpace=wrap;html=1;startSize=0;strokeColor=#000000;strokeWidth=2;fillColor=#FF9999;" parent="Ct21ZAAm-CWYSVT3wcQW-1" vertex="1">
          <mxGeometry x="535" y="410" width="80" height="30" as="geometry" />
        </mxCell>
        <mxCell id="Ct21ZAAm-CWYSVT3wcQW-25" value="100" style="rounded=0;whiteSpace=wrap;html=1;startSize=0;strokeColor=#000000;strokeWidth=2;fillColor=#FF9999;" parent="Ct21ZAAm-CWYSVT3wcQW-1" vertex="1">
          <mxGeometry x="615" y="410" width="80" height="30" as="geometry" />
        </mxCell>
        <mxCell id="Ct21ZAAm-CWYSVT3wcQW-32" value="" style="edgeStyle=orthogonalEdgeStyle;rounded=0;orthogonalLoop=1;jettySize=auto;html=1;startSize=0;strokeWidth=2;entryX=0;entryY=0.5;entryDx=0;entryDy=0;" parent="Ct21ZAAm-CWYSVT3wcQW-1" source="Ct21ZAAm-CWYSVT3wcQW-26" target="Ct21ZAAm-CWYSVT3wcQW-19" edge="1">
          <mxGeometry relative="1" as="geometry">
            <Array as="points">
              <mxPoint x="735" y="460" />
              <mxPoint x="435" y="460" />
              <mxPoint x="435" y="495" />
            </Array>
          </mxGeometry>
        </mxCell>
        <mxCell id="Ct21ZAAm-CWYSVT3wcQW-26" value="" style="rounded=0;whiteSpace=wrap;html=1;startSize=0;strokeColor=#000000;strokeWidth=2;fillColor=#FF9999;" parent="Ct21ZAAm-CWYSVT3wcQW-1" vertex="1">
          <mxGeometry x="695" y="410" width="80" height="30" as="geometry" />
        </mxCell>
        <mxCell id="Ct21ZAAm-CWYSVT3wcQW-28" value="1" style="rounded=0;whiteSpace=wrap;html=1;startSize=0;strokeColor=#000000;strokeWidth=2;fillColor=#FF9999;" parent="Ct21ZAAm-CWYSVT3wcQW-1" vertex="1">
          <mxGeometry x="455" y="340" width="80" height="30" as="geometry" />
        </mxCell>
        <mxCell id="Ct21ZAAm-CWYSVT3wcQW-29" value="lilei2" style="rounded=0;whiteSpace=wrap;html=1;startSize=0;strokeColor=#000000;strokeWidth=2;fillColor=#FF9999;" parent="Ct21ZAAm-CWYSVT3wcQW-1" vertex="1">
          <mxGeometry x="535" y="340" width="80" height="30" as="geometry" />
        </mxCell>
        <mxCell id="Ct21ZAAm-CWYSVT3wcQW-30" value="100" style="rounded=0;whiteSpace=wrap;html=1;startSize=0;strokeColor=#000000;strokeWidth=2;fillColor=#FF9999;" parent="Ct21ZAAm-CWYSVT3wcQW-1" vertex="1">
          <mxGeometry x="615" y="340" width="80" height="30" as="geometry" />
        </mxCell>
        <mxCell id="Ct21ZAAm-CWYSVT3wcQW-37" value="" style="edgeStyle=orthogonalEdgeStyle;rounded=0;orthogonalLoop=1;jettySize=auto;html=1;startSize=0;strokeWidth=2;entryX=0;entryY=0.5;entryDx=0;entryDy=0;" parent="Ct21ZAAm-CWYSVT3wcQW-1" source="Ct21ZAAm-CWYSVT3wcQW-31" target="Ct21ZAAm-CWYSVT3wcQW-23" edge="1">
          <mxGeometry relative="1" as="geometry">
            <Array as="points">
              <mxPoint x="735" y="390" />
              <mxPoint x="435" y="390" />
              <mxPoint x="435" y="425" />
            </Array>
          </mxGeometry>
        </mxCell>
        <mxCell id="Ct21ZAAm-CWYSVT3wcQW-31" value="" style="rounded=0;whiteSpace=wrap;html=1;startSize=0;strokeColor=#000000;strokeWidth=2;fillColor=#FF9999;" parent="Ct21ZAAm-CWYSVT3wcQW-1" vertex="1">
          <mxGeometry x="695" y="340" width="80" height="30" as="geometry" />
        </mxCell>
        <mxCell id="Ct21ZAAm-CWYSVT3wcQW-33" value="1" style="rounded=0;whiteSpace=wrap;html=1;startSize=0;strokeColor=#000000;strokeWidth=2;fillColor=#FF9999;" parent="Ct21ZAAm-CWYSVT3wcQW-1" vertex="1">
          <mxGeometry x="455" y="270" width="80" height="30" as="geometry" />
        </mxCell>
        <mxCell id="Ct21ZAAm-CWYSVT3wcQW-34" value="lilei3" style="rounded=0;whiteSpace=wrap;html=1;startSize=0;strokeColor=#000000;strokeWidth=2;fillColor=#FF9999;" parent="Ct21ZAAm-CWYSVT3wcQW-1" vertex="1">
          <mxGeometry x="535" y="270" width="80" height="30" as="geometry" />
        </mxCell>
        <mxCell id="Ct21ZAAm-CWYSVT3wcQW-35" value="200" style="rounded=0;whiteSpace=wrap;html=1;startSize=0;strokeColor=#000000;strokeWidth=2;fillColor=#FF9999;" parent="Ct21ZAAm-CWYSVT3wcQW-1" vertex="1">
          <mxGeometry x="615" y="270" width="80" height="30" as="geometry" />
        </mxCell>
        <mxCell id="Ct21ZAAm-CWYSVT3wcQW-42" value="" style="edgeStyle=orthogonalEdgeStyle;rounded=0;orthogonalLoop=1;jettySize=auto;html=1;startSize=0;strokeWidth=2;entryX=0;entryY=0.5;entryDx=0;entryDy=0;" parent="Ct21ZAAm-CWYSVT3wcQW-1" source="Ct21ZAAm-CWYSVT3wcQW-36" target="Ct21ZAAm-CWYSVT3wcQW-28" edge="1">
          <mxGeometry relative="1" as="geometry">
            <mxPoint x="445" y="355" as="targetPoint" />
            <Array as="points">
              <mxPoint x="735" y="320" />
              <mxPoint x="435" y="320" />
              <mxPoint x="435" y="355" />
            </Array>
          </mxGeometry>
        </mxCell>
        <mxCell id="Ct21ZAAm-CWYSVT3wcQW-36" value="" style="rounded=0;whiteSpace=wrap;html=1;startSize=0;strokeColor=#000000;strokeWidth=2;fillColor=#FF9999;" parent="Ct21ZAAm-CWYSVT3wcQW-1" vertex="1">
          <mxGeometry x="695" y="270" width="80" height="30" as="geometry" />
        </mxCell>
        <mxCell id="Ct21ZAAm-CWYSVT3wcQW-38" value="1" style="rounded=0;whiteSpace=wrap;html=1;startSize=0;strokeColor=#000000;strokeWidth=2;fillColor=#3399FF;" parent="Ct21ZAAm-CWYSVT3wcQW-1" vertex="1">
          <mxGeometry x="455" y="200" width="80" height="30" as="geometry" />
        </mxCell>
        <mxCell id="Ct21ZAAm-CWYSVT3wcQW-39" value="lilei4" style="rounded=0;whiteSpace=wrap;html=1;startSize=0;strokeColor=#000000;strokeWidth=2;fillColor=#3399FF;" parent="Ct21ZAAm-CWYSVT3wcQW-1" vertex="1">
          <mxGeometry x="535" y="200" width="80" height="30" as="geometry" />
        </mxCell>
        <mxCell id="Ct21ZAAm-CWYSVT3wcQW-40" value="200" style="rounded=0;whiteSpace=wrap;html=1;startSize=0;strokeColor=#000000;strokeWidth=2;fillColor=#3399FF;" parent="Ct21ZAAm-CWYSVT3wcQW-1" vertex="1">
          <mxGeometry x="615" y="200" width="80" height="30" as="geometry" />
        </mxCell>
        <mxCell id="Ct21ZAAm-CWYSVT3wcQW-43" value="" style="edgeStyle=orthogonalEdgeStyle;rounded=0;orthogonalLoop=1;jettySize=auto;html=1;startSize=0;strokeWidth=2;entryX=0;entryY=0.5;entryDx=0;entryDy=0;" parent="Ct21ZAAm-CWYSVT3wcQW-1" source="Ct21ZAAm-CWYSVT3wcQW-41" target="Ct21ZAAm-CWYSVT3wcQW-33" edge="1">
          <mxGeometry relative="1" as="geometry">
            <Array as="points">
              <mxPoint x="735" y="250" />
              <mxPoint x="435" y="250" />
              <mxPoint x="435" y="285" />
            </Array>
          </mxGeometry>
        </mxCell>
        <mxCell id="Ct21ZAAm-CWYSVT3wcQW-41" value="" style="rounded=0;whiteSpace=wrap;html=1;startSize=0;strokeColor=#000000;strokeWidth=2;fillColor=#3399FF;" parent="Ct21ZAAm-CWYSVT3wcQW-1" vertex="1">
          <mxGeometry x="695" y="200" width="80" height="30" as="geometry" />
        </mxCell>
        <mxCell id="Ct21ZAAm-CWYSVT3wcQW-44" value="" style="shape=curlyBracket;whiteSpace=wrap;html=1;rounded=1;startSize=0;strokeColor=#000000;strokeWidth=2;fillColor=#3399FF;opacity=70;" parent="Ct21ZAAm-CWYSVT3wcQW-1" vertex="1">
          <mxGeometry x="385" y="280" width="20" height="290" as="geometry" />
        </mxCell>
        <mxCell id="Ct21ZAAm-CWYSVT3wcQW-45" value="undo回滚日志" style="text;html=1;align=center;verticalAlign=middle;resizable=0;points=[];autosize=1;strokeColor=none;" parent="Ct21ZAAm-CWYSVT3wcQW-1" vertex="1">
          <mxGeometry x="290" y="410" width="90" height="20" as="geometry" />
        </mxCell>
        <mxCell id="Ct21ZAAm-CWYSVT3wcQW-46" value="" style="shape=curlyBracket;whiteSpace=wrap;html=1;rounded=1;flipH=1;startSize=0;strokeColor=#000000;strokeWidth=2;fillColor=#3399FF;opacity=70;" parent="Ct21ZAAm-CWYSVT3wcQW-1" vertex="1">
          <mxGeometry x="805" y="200" width="20" height="380" as="geometry" />
        </mxCell>
        <mxCell id="Ct21ZAAm-CWYSVT3wcQW-47" value="记录版本链" style="text;html=1;align=center;verticalAlign=middle;resizable=0;points=[];autosize=1;strokeColor=none;" parent="Ct21ZAAm-CWYSVT3wcQW-1" vertex="1">
          <mxGeometry x="825" y="380" width="80" height="20" as="geometry" />
        </mxCell>
        <mxCell id="Ct21ZAAm-CWYSVT3wcQW-48" value="已提交事务" style="rounded=0;whiteSpace=wrap;html=1;startSize=0;strokeWidth=2;fillColor=#99FF99;" parent="Ct21ZAAm-CWYSVT3wcQW-1" vertex="1">
          <mxGeometry x="465" y="710" width="120" height="30" as="geometry" />
        </mxCell>
        <mxCell id="Ct21ZAAm-CWYSVT3wcQW-51" style="edgeStyle=orthogonalEdgeStyle;rounded=0;orthogonalLoop=1;jettySize=auto;html=1;exitX=0;exitY=0;exitDx=0;exitDy=0;startSize=0;strokeWidth=2;" parent="Ct21ZAAm-CWYSVT3wcQW-1" source="Ct21ZAAm-CWYSVT3wcQW-49" edge="1">
          <mxGeometry relative="1" as="geometry">
            <mxPoint x="625" y="660" as="targetPoint" />
          </mxGeometry>
        </mxCell>
        <mxCell id="Ct21ZAAm-CWYSVT3wcQW-53" style="edgeStyle=orthogonalEdgeStyle;rounded=0;orthogonalLoop=1;jettySize=auto;html=1;exitX=1;exitY=0;exitDx=0;exitDy=0;startSize=0;strokeWidth=2;" parent="Ct21ZAAm-CWYSVT3wcQW-1" source="Ct21ZAAm-CWYSVT3wcQW-49" edge="1">
          <mxGeometry relative="1" as="geometry">
            <mxPoint x="745" y="660" as="targetPoint" />
          </mxGeometry>
        </mxCell>
        <mxCell id="Ct21ZAAm-CWYSVT3wcQW-49" value="未提交与已提交事务" style="rounded=0;whiteSpace=wrap;html=1;startSize=0;strokeWidth=2;fillColor=#FF9933;" parent="Ct21ZAAm-CWYSVT3wcQW-1" vertex="1">
          <mxGeometry x="625" y="710" width="120" height="30" as="geometry" />
        </mxCell>
        <mxCell id="Ct21ZAAm-CWYSVT3wcQW-50" value="未开始事务" style="rounded=0;whiteSpace=wrap;html=1;startSize=0;strokeWidth=2;fillColor=#EA6B66;" parent="Ct21ZAAm-CWYSVT3wcQW-1" vertex="1">
          <mxGeometry x="785" y="710" width="120" height="30" as="geometry" />
        </mxCell>
        <mxCell id="Ct21ZAAm-CWYSVT3wcQW-52" value="min_id = 200" style="text;html=1;align=center;verticalAlign=middle;resizable=0;points=[];autosize=1;strokeColor=none;" parent="Ct21ZAAm-CWYSVT3wcQW-1" vertex="1">
          <mxGeometry x="585" y="640" width="80" height="20" as="geometry" />
        </mxCell>
        <mxCell id="Ct21ZAAm-CWYSVT3wcQW-54" value="max_id = 300" style="text;html=1;align=center;verticalAlign=middle;resizable=0;points=[];autosize=1;strokeColor=none;" parent="Ct21ZAAm-CWYSVT3wcQW-1" vertex="1">
          <mxGeometry x="700" y="640" width="90" height="20" as="geometry" />
        </mxCell>
        <mxCell id="Ct21ZAAm-CWYSVT3wcQW-55" value="&lt;b&gt;&lt;font style=&quot;font-size: 15px&quot;&gt;readview:[100,200], 300&lt;/font&gt;&lt;/b&gt;" style="text;html=1;align=center;verticalAlign=middle;resizable=0;points=[];autosize=1;strokeColor=none;" parent="Ct21ZAAm-CWYSVT3wcQW-1" vertex="1">
          <mxGeometry x="825" y="610" width="180" height="20" as="geometry" />
        </mxCell>
        <mxCell id="Eize9RsVOzV6z0VANb_H-0" value="在&lt;b style=&quot;font-size: 13px;&quot;&gt;可重复读隔离级别&lt;/b&gt;，当事务开启，执行任何查询sql时会生成当前事务的&lt;b style=&quot;font-size: 13px;&quot;&gt;一致性视图read-view&lt;/b&gt;，该视图在事务结束之前都不会变化(&lt;b style=&quot;font-size: 13px;&quot;&gt;如果是读已提交隔离级别在每次执行查询sql时都会重新生成&lt;/b&gt;)，这个视图由执行查询时所有未提交事务id数组（数组里最小的id为min_id）和已创建的最大事务id（max_id）组成，事务里的任何sql查询结果需要从对应版本链里的最新数据开始逐条跟read-view做比对从而得到最终的快照结果。&lt;br style=&quot;font-size: 13px;&quot;&gt;&lt;b style=&quot;font-size: 13px;&quot;&gt;版本链比对规则：&lt;/b&gt;&lt;br style=&quot;font-size: 13px;&quot;&gt;&lt;ol style=&quot;font-size: 13px;&quot;&gt;&lt;li style=&quot;font-size: 13px;&quot;&gt;如果 row 的 trx_id 落在绿色部分( trx_id)&lt;br style=&quot;font-size: 13px;&quot;&gt;&lt;/li&gt;&lt;li style=&quot;font-size: 13px;&quot;&gt;如果 row 的 trx_id 落在红色部分( trx_id&amp;gt;max_id )，表示这个版本是由将来启动的事务生成的，是不可见的(若 row 的 trx_id 就是当前自己的事务是可见的）；&lt;br style=&quot;font-size: 13px;&quot;&gt;&lt;/li&gt;&lt;li style=&quot;font-size: 13px;&quot;&gt;如果 row 的 trx_id 落在黄色部分(min_id &amp;lt;=trx_id&amp;lt;= max_id)，那就包括两种情况&lt;br style=&quot;font-size: 13px;&quot;&gt;&lt;/li&gt;&lt;/ol&gt;&lt;ul style=&quot;font-size: 13px;&quot;&gt;&lt;ul style=&quot;font-size: 13px;&quot;&gt;&lt;li style=&quot;font-size: 13px;&quot;&gt;&lt;span style=&quot;font-size: 13px;&quot;&gt;若 row 的 trx_id 在视图数组中，表示这个版本是由还没提交的事务生成的，不可见(若 row 的 trx_id 就是当前自己的事务是可见的)；&lt;/span&gt;&lt;/li&gt;&lt;li style=&quot;font-size: 13px;&quot;&gt;&lt;span style=&quot;font-size: 13px;&quot;&gt;若 row 的 trx_id 不在视图数组中，表示这个版本是已经提交了的事务生成的，可见。&lt;/span&gt;&lt;/li&gt;&lt;/ul&gt;&lt;/ul&gt;对于删除的情况可以认为是update的特殊情况，会将版本链上最新的数据复制一份，然后将trx_id修改成删除操作的trx_id，同时在该条记录的头信息（record header）里的（deleted_flag）标记位写上true，来表示当前记录已经被删除，在查询时按照上面的规则查到对应的记录如果delete_flag标记位为true，意味着记录已被删除，则不返回数据。&lt;br style=&quot;font-size: 13px;&quot;&gt;&lt;br style=&quot;font-size: 13px;&quot;&gt;&lt;b style=&quot;font-size: 13px;&quot;&gt;注意：&lt;/b&gt;begin/start&amp;nbsp;transaction&amp;nbsp;命令并不是一个事务的起点，在执行到它们之后的第一个修改操作InnoDB表的语句，事务才真正启动，才会向mysql申请事务id，mysql内部是严格按照事务的启动顺序来分配事务id的。&lt;br style=&quot;font-size: 13px;&quot;&gt;&lt;br style=&quot;font-size: 13px;&quot;&gt;&lt;b style=&quot;font-size: 13px;&quot;&gt;总结：&lt;/b&gt;&lt;br style=&quot;font-size: 13px;&quot;&gt;MVCC机制的实现就是通过read-view机制与undo版本链比对机制，使得不同的事务会根据数据版本链对比规则读取同一条数据在版本链上的不同版本数据。" style="rounded=0;whiteSpace=wrap;html=1;align=left;fontSize=13;fontFamily=Lucida Console;" vertex="1" parent="Ct21ZAAm-CWYSVT3wcQW-1">
          <mxGeometry x="-470" y="490" width="810" height="380" as="geometry" />
        </mxCell>
      </root>
    </mxGraphModel>
  </diagram>
  <diagram id="xqegEzbTVuIXeuqBMLsA" name="InnoDB引擎SQL执行的BufferPool缓存机制">
    <mxGraphModel dx="1920" dy="1305" grid="1" gridSize="10" guides="1" tooltips="1" connect="1" arrows="1" fold="1" page="1" pageScale="1" pageWidth="192000" pageHeight="108000" math="0" shadow="0">
      <root>
        <mxCell id="jS1sA1JP-IGQIhZOZ2VB-0" />
        <mxCell id="jS1sA1JP-IGQIhZOZ2VB-1" parent="jS1sA1JP-IGQIhZOZ2VB-0" />
        <mxCell id="jS1sA1JP-IGQIhZOZ2VB-3" value="" style="rounded=0;whiteSpace=wrap;html=1;startSize=0;strokeColor=#000000;strokeWidth=2;fillColor=#FF9999;" vertex="1" parent="jS1sA1JP-IGQIhZOZ2VB-1">
          <mxGeometry x="1800" y="620" width="460" height="250" as="geometry" />
        </mxCell>
        <mxCell id="jS1sA1JP-IGQIhZOZ2VB-24" value="" style="rounded=0;whiteSpace=wrap;html=1;startSize=0;strokeColor=#000000;strokeWidth=2;fillColor=#66FFFF;" vertex="1" parent="jS1sA1JP-IGQIhZOZ2VB-1">
          <mxGeometry x="1730" y="970" width="630" height="270" as="geometry" />
        </mxCell>
        <mxCell id="l-n8Nsm_BFb_VGwomjxH-30" style="edgeStyle=none;rounded=0;orthogonalLoop=1;jettySize=auto;html=1;exitX=0.5;exitY=1;exitDx=0;exitDy=0;fontSize=15;fontColor=#000000;startSize=0;strokeWidth=2;entryX=0.5;entryY=0;entryDx=0;entryDy=0;" edge="1" parent="jS1sA1JP-IGQIhZOZ2VB-1" source="jS1sA1JP-IGQIhZOZ2VB-2" target="jS1sA1JP-IGQIhZOZ2VB-4">
          <mxGeometry relative="1" as="geometry" />
        </mxCell>
        <mxCell id="jS1sA1JP-IGQIhZOZ2VB-2" value="client执行SQL&lt;br&gt;update t set name = &#39;zhangsan&#39; where id = 1;&lt;br&gt;id为1的数据那么的原值为zhangsan" style="rounded=0;whiteSpace=wrap;html=1;startSize=0;strokeColor=#000000;strokeWidth=2;fillColor=#99FF99;" vertex="1" parent="jS1sA1JP-IGQIhZOZ2VB-1">
          <mxGeometry x="1870" y="530" width="320" height="50" as="geometry" />
        </mxCell>
        <mxCell id="jS1sA1JP-IGQIhZOZ2VB-6" value="" style="edgeStyle=orthogonalEdgeStyle;rounded=0;orthogonalLoop=1;jettySize=auto;html=1;startSize=0;strokeWidth=2;" edge="1" parent="jS1sA1JP-IGQIhZOZ2VB-1" source="jS1sA1JP-IGQIhZOZ2VB-4" target="jS1sA1JP-IGQIhZOZ2VB-5">
          <mxGeometry relative="1" as="geometry" />
        </mxCell>
        <mxCell id="jS1sA1JP-IGQIhZOZ2VB-12" value="" style="rounded=0;orthogonalLoop=1;jettySize=auto;html=1;startSize=0;strokeWidth=2;exitX=0;exitY=0.5;exitDx=0;exitDy=0;entryX=1;entryY=0.5;entryDx=0;entryDy=0;" edge="1" parent="jS1sA1JP-IGQIhZOZ2VB-1" source="jS1sA1JP-IGQIhZOZ2VB-4" target="jS1sA1JP-IGQIhZOZ2VB-11">
          <mxGeometry relative="1" as="geometry" />
        </mxCell>
        <mxCell id="jS1sA1JP-IGQIhZOZ2VB-18" style="edgeStyle=none;rounded=0;orthogonalLoop=1;jettySize=auto;html=1;exitX=1;exitY=0.5;exitDx=0;exitDy=0;startSize=0;strokeWidth=2;dashed=1;" edge="1" parent="jS1sA1JP-IGQIhZOZ2VB-1" source="jS1sA1JP-IGQIhZOZ2VB-4" target="jS1sA1JP-IGQIhZOZ2VB-16">
          <mxGeometry relative="1" as="geometry" />
        </mxCell>
        <mxCell id="jS1sA1JP-IGQIhZOZ2VB-4" value="连接器" style="rounded=0;whiteSpace=wrap;html=1;startSize=0;strokeColor=#000000;strokeWidth=2;fillColor=#FFFFFF;" vertex="1" parent="jS1sA1JP-IGQIhZOZ2VB-1">
          <mxGeometry x="1990" y="640" width="80" height="30" as="geometry" />
        </mxCell>
        <mxCell id="jS1sA1JP-IGQIhZOZ2VB-8" value="" style="edgeStyle=orthogonalEdgeStyle;rounded=0;orthogonalLoop=1;jettySize=auto;html=1;startSize=0;strokeWidth=2;" edge="1" parent="jS1sA1JP-IGQIhZOZ2VB-1" source="jS1sA1JP-IGQIhZOZ2VB-5" target="jS1sA1JP-IGQIhZOZ2VB-7">
          <mxGeometry relative="1" as="geometry" />
        </mxCell>
        <mxCell id="jS1sA1JP-IGQIhZOZ2VB-19" style="edgeStyle=none;rounded=0;orthogonalLoop=1;jettySize=auto;html=1;exitX=1;exitY=0.5;exitDx=0;exitDy=0;dashed=1;startSize=0;strokeWidth=2;" edge="1" parent="jS1sA1JP-IGQIhZOZ2VB-1" source="jS1sA1JP-IGQIhZOZ2VB-5">
          <mxGeometry relative="1" as="geometry">
            <mxPoint x="2290" y="705" as="targetPoint" />
          </mxGeometry>
        </mxCell>
        <mxCell id="jS1sA1JP-IGQIhZOZ2VB-5" value="分析器" style="rounded=0;whiteSpace=wrap;html=1;startSize=0;strokeColor=#000000;strokeWidth=2;fillColor=#FFFFFF;" vertex="1" parent="jS1sA1JP-IGQIhZOZ2VB-1">
          <mxGeometry x="1990" y="690" width="80" height="30" as="geometry" />
        </mxCell>
        <mxCell id="jS1sA1JP-IGQIhZOZ2VB-10" value="" style="edgeStyle=orthogonalEdgeStyle;rounded=0;orthogonalLoop=1;jettySize=auto;html=1;startSize=0;strokeWidth=2;" edge="1" parent="jS1sA1JP-IGQIhZOZ2VB-1" source="jS1sA1JP-IGQIhZOZ2VB-7" target="jS1sA1JP-IGQIhZOZ2VB-9">
          <mxGeometry relative="1" as="geometry" />
        </mxCell>
        <mxCell id="jS1sA1JP-IGQIhZOZ2VB-23" style="edgeStyle=none;rounded=0;orthogonalLoop=1;jettySize=auto;html=1;exitX=1;exitY=0.5;exitDx=0;exitDy=0;dashed=1;startSize=0;strokeWidth=2;" edge="1" parent="jS1sA1JP-IGQIhZOZ2VB-1" source="jS1sA1JP-IGQIhZOZ2VB-7" target="jS1sA1JP-IGQIhZOZ2VB-22">
          <mxGeometry relative="1" as="geometry" />
        </mxCell>
        <mxCell id="jS1sA1JP-IGQIhZOZ2VB-7" value="优化器" style="rounded=0;whiteSpace=wrap;html=1;startSize=0;strokeColor=#000000;strokeWidth=2;fillColor=#FFFFFF;" vertex="1" parent="jS1sA1JP-IGQIhZOZ2VB-1">
          <mxGeometry x="1990" y="740" width="80" height="30" as="geometry" />
        </mxCell>
        <mxCell id="jS1sA1JP-IGQIhZOZ2VB-37" style="edgeStyle=none;rounded=0;orthogonalLoop=1;jettySize=auto;html=1;exitX=0.5;exitY=1;exitDx=0;exitDy=0;entryX=0.25;entryY=0;entryDx=0;entryDy=0;fontSize=14;startSize=0;strokeWidth=2;" edge="1" parent="jS1sA1JP-IGQIhZOZ2VB-1">
          <mxGeometry relative="1" as="geometry">
            <mxPoint x="2029" y="820" as="sourcePoint" />
            <mxPoint x="2029" y="970" as="targetPoint" />
          </mxGeometry>
        </mxCell>
        <mxCell id="jS1sA1JP-IGQIhZOZ2VB-38" value="调用引擎接口" style="edgeLabel;html=1;align=center;verticalAlign=middle;resizable=0;points=[];fontSize=14;" vertex="1" connectable="0" parent="jS1sA1JP-IGQIhZOZ2VB-37">
          <mxGeometry x="0.221" relative="1" as="geometry">
            <mxPoint y="-62" as="offset" />
          </mxGeometry>
        </mxCell>
        <mxCell id="jS1sA1JP-IGQIhZOZ2VB-53" style="edgeStyle=orthogonalEdgeStyle;rounded=0;orthogonalLoop=1;jettySize=auto;html=1;exitX=0;exitY=0.5;exitDx=0;exitDy=0;entryX=0.466;entryY=0;entryDx=0;entryDy=0;entryPerimeter=0;fontSize=15;fontColor=#000000;startSize=0;strokeWidth=2;" edge="1" parent="jS1sA1JP-IGQIhZOZ2VB-1" source="jS1sA1JP-IGQIhZOZ2VB-9" target="jS1sA1JP-IGQIhZOZ2VB-29">
          <mxGeometry relative="1" as="geometry" />
        </mxCell>
        <mxCell id="jS1sA1JP-IGQIhZOZ2VB-54" value="3、更新内存数据" style="edgeLabel;html=1;align=center;verticalAlign=middle;resizable=0;points=[];fontSize=15;fontColor=#000000;" vertex="1" connectable="0" parent="jS1sA1JP-IGQIhZOZ2VB-53">
          <mxGeometry x="0.4071" y="-1" relative="1" as="geometry">
            <mxPoint x="-2" y="-17" as="offset" />
          </mxGeometry>
        </mxCell>
        <mxCell id="jS1sA1JP-IGQIhZOZ2VB-55" style="edgeStyle=orthogonalEdgeStyle;rounded=0;orthogonalLoop=1;jettySize=auto;html=1;exitX=1;exitY=0.5;exitDx=0;exitDy=0;entryX=0.402;entryY=0.021;entryDx=0;entryDy=0;entryPerimeter=0;fontSize=15;fontColor=#000000;startSize=0;strokeWidth=2;" edge="1" parent="jS1sA1JP-IGQIhZOZ2VB-1" source="jS1sA1JP-IGQIhZOZ2VB-9" target="jS1sA1JP-IGQIhZOZ2VB-36">
          <mxGeometry relative="1" as="geometry">
            <Array as="points">
              <mxPoint x="2070" y="810" />
              <mxPoint x="2180" y="810" />
            </Array>
          </mxGeometry>
        </mxCell>
        <mxCell id="jS1sA1JP-IGQIhZOZ2VB-56" value="4、写入redo日志" style="edgeLabel;html=1;align=center;verticalAlign=middle;resizable=0;points=[];fontSize=15;fontColor=#000000;" vertex="1" connectable="0" parent="jS1sA1JP-IGQIhZOZ2VB-55">
          <mxGeometry x="0.237" y="2" relative="1" as="geometry">
            <mxPoint as="offset" />
          </mxGeometry>
        </mxCell>
        <mxCell id="l-n8Nsm_BFb_VGwomjxH-6" style="edgeStyle=orthogonalEdgeStyle;rounded=0;orthogonalLoop=1;jettySize=auto;html=1;exitX=1;exitY=0.25;exitDx=0;exitDy=0;entryX=0.5;entryY=0;entryDx=0;entryDy=0;fontSize=15;fontColor=#000000;startSize=0;strokeWidth=2;" edge="1" parent="jS1sA1JP-IGQIhZOZ2VB-1" source="jS1sA1JP-IGQIhZOZ2VB-9" target="l-n8Nsm_BFb_VGwomjxH-3">
          <mxGeometry relative="1" as="geometry" />
        </mxCell>
        <mxCell id="l-n8Nsm_BFb_VGwomjxH-7" value="6、准备提交事务&lt;br&gt;binlog日志写入磁盘文件" style="edgeLabel;html=1;align=center;verticalAlign=middle;resizable=0;points=[];fontSize=15;fontColor=#000000;" vertex="1" connectable="0" parent="l-n8Nsm_BFb_VGwomjxH-6">
          <mxGeometry x="0.5419" y="3" relative="1" as="geometry">
            <mxPoint as="offset" />
          </mxGeometry>
        </mxCell>
        <mxCell id="jS1sA1JP-IGQIhZOZ2VB-9" value="执行器" style="rounded=0;whiteSpace=wrap;html=1;startSize=0;strokeColor=#000000;strokeWidth=2;fillColor=#99FF99;" vertex="1" parent="jS1sA1JP-IGQIhZOZ2VB-1">
          <mxGeometry x="1990" y="790" width="80" height="30" as="geometry" />
        </mxCell>
        <mxCell id="jS1sA1JP-IGQIhZOZ2VB-11" value="查询缓存" style="rounded=0;whiteSpace=wrap;html=1;startSize=0;strokeColor=#000000;strokeWidth=2;fillColor=#FFFFFF;" vertex="1" parent="jS1sA1JP-IGQIhZOZ2VB-1">
          <mxGeometry x="1870" y="670" width="80" height="30" as="geometry" />
        </mxCell>
        <mxCell id="jS1sA1JP-IGQIhZOZ2VB-14" value="&lt;font style=&quot;font-size: 15px&quot;&gt;Server层&lt;/font&gt;" style="text;html=1;strokeColor=none;fillColor=none;align=center;verticalAlign=middle;whiteSpace=wrap;rounded=0;startSize=0;fontStyle=1" vertex="1" parent="jS1sA1JP-IGQIhZOZ2VB-1">
          <mxGeometry x="1820" y="755" width="70" height="20" as="geometry" />
        </mxCell>
        <mxCell id="jS1sA1JP-IGQIhZOZ2VB-16" value="管理连接与权限校验" style="rounded=0;whiteSpace=wrap;html=1;startSize=0;strokeColor=#000000;strokeWidth=2;fillColor=#FFFFCC;" vertex="1" parent="jS1sA1JP-IGQIhZOZ2VB-1">
          <mxGeometry x="2290" y="640" width="120" height="30" as="geometry" />
        </mxCell>
        <mxCell id="jS1sA1JP-IGQIhZOZ2VB-21" value="语法此法分析" style="rounded=0;whiteSpace=wrap;html=1;startSize=0;strokeColor=#000000;strokeWidth=2;fillColor=#FFFFCC;" vertex="1" parent="jS1sA1JP-IGQIhZOZ2VB-1">
          <mxGeometry x="2290" y="690" width="120" height="30" as="geometry" />
        </mxCell>
        <mxCell id="jS1sA1JP-IGQIhZOZ2VB-22" value="执行计划生成索引选择" style="rounded=0;whiteSpace=wrap;html=1;startSize=0;strokeColor=#000000;strokeWidth=2;fillColor=#FFFFCC;" vertex="1" parent="jS1sA1JP-IGQIhZOZ2VB-1">
          <mxGeometry x="2290" y="740" width="120" height="30" as="geometry" />
        </mxCell>
        <mxCell id="jS1sA1JP-IGQIhZOZ2VB-49" style="edgeStyle=orthogonalEdgeStyle;rounded=0;orthogonalLoop=1;jettySize=auto;html=1;exitX=0;exitY=0.5;exitDx=0;exitDy=0;entryX=0.5;entryY=0;entryDx=0;entryDy=0;fontSize=15;fontColor=#990000;startSize=0;strokeWidth=2;" edge="1" parent="jS1sA1JP-IGQIhZOZ2VB-1" source="jS1sA1JP-IGQIhZOZ2VB-24" target="jS1sA1JP-IGQIhZOZ2VB-46">
          <mxGeometry relative="1" as="geometry" />
        </mxCell>
        <mxCell id="jS1sA1JP-IGQIhZOZ2VB-50" value="2、写入更新数据的旧值&lt;br&gt;便于数据回滚操作" style="edgeLabel;html=1;align=center;verticalAlign=middle;resizable=0;points=[];fontSize=15;" vertex="1" connectable="0" parent="jS1sA1JP-IGQIhZOZ2VB-49">
          <mxGeometry x="0.3118" y="2" relative="1" as="geometry">
            <mxPoint as="offset" />
          </mxGeometry>
        </mxCell>
        <mxCell id="jS1sA1JP-IGQIhZOZ2VB-25" value="&lt;font style=&quot;font-size: 15px&quot;&gt;InnoDB存储引擎&lt;/font&gt;" style="text;html=1;strokeColor=none;fillColor=none;align=center;verticalAlign=middle;whiteSpace=wrap;rounded=0;startSize=0;" vertex="1" parent="jS1sA1JP-IGQIhZOZ2VB-1">
          <mxGeometry x="2010" y="970" width="80" height="40" as="geometry" />
        </mxCell>
        <mxCell id="l-n8Nsm_BFb_VGwomjxH-11" style="edgeStyle=orthogonalEdgeStyle;rounded=0;orthogonalLoop=1;jettySize=auto;html=1;exitX=1;exitY=0.5;exitDx=0;exitDy=0;entryX=0.5;entryY=0;entryDx=0;entryDy=0;fontSize=15;fontColor=#000000;startSize=0;strokeWidth=2;" edge="1" parent="jS1sA1JP-IGQIhZOZ2VB-1" source="jS1sA1JP-IGQIhZOZ2VB-29" target="l-n8Nsm_BFb_VGwomjxH-10">
          <mxGeometry relative="1" as="geometry" />
        </mxCell>
        <mxCell id="l-n8Nsm_BFb_VGwomjxH-12" value="修改的数据" style="edgeLabel;html=1;align=center;verticalAlign=middle;resizable=0;points=[];fontSize=15;fontColor=#000000;" vertex="1" connectable="0" parent="l-n8Nsm_BFb_VGwomjxH-11">
          <mxGeometry x="0.2667" y="-1" relative="1" as="geometry">
            <mxPoint as="offset" />
          </mxGeometry>
        </mxCell>
        <mxCell id="jS1sA1JP-IGQIhZOZ2VB-29" value="" style="rounded=0;whiteSpace=wrap;html=1;startSize=0;strokeColor=#000000;strokeWidth=2;fillColor=#99FF99;" vertex="1" parent="jS1sA1JP-IGQIhZOZ2VB-1">
          <mxGeometry x="1765" y="1030" width="290" height="150" as="geometry" />
        </mxCell>
        <mxCell id="jS1sA1JP-IGQIhZOZ2VB-30" value="Buffer Pool 缓存池" style="text;html=1;strokeColor=none;fillColor=none;align=center;verticalAlign=middle;whiteSpace=wrap;rounded=0;startSize=0;fontSize=14;" vertex="1" parent="jS1sA1JP-IGQIhZOZ2VB-1">
          <mxGeometry x="1872.5" y="1040" width="75" height="20" as="geometry" />
        </mxCell>
        <mxCell id="jS1sA1JP-IGQIhZOZ2VB-32" value="" style="rounded=0;whiteSpace=wrap;html=1;fontSize=14;startSize=0;strokeColor=#000000;strokeWidth=2;fillColor=#F8CECC;" vertex="1" parent="jS1sA1JP-IGQIhZOZ2VB-1">
          <mxGeometry x="1810" y="1070" width="190" height="90" as="geometry" />
        </mxCell>
        <mxCell id="jS1sA1JP-IGQIhZOZ2VB-33" value="page" style="text;html=1;strokeColor=none;fillColor=none;align=center;verticalAlign=middle;whiteSpace=wrap;rounded=0;fontSize=14;startSize=0;" vertex="1" parent="jS1sA1JP-IGQIhZOZ2VB-1">
          <mxGeometry x="1880" y="1075" width="40" height="20" as="geometry" />
        </mxCell>
        <mxCell id="jS1sA1JP-IGQIhZOZ2VB-34" value="name = zhangsan666" style="text;html=1;strokeColor=none;fillColor=none;align=center;verticalAlign=middle;whiteSpace=wrap;rounded=0;fontSize=14;startSize=0;fontColor=#990000;fontStyle=1" vertex="1" parent="jS1sA1JP-IGQIhZOZ2VB-1">
          <mxGeometry x="1820" y="1110" width="160" height="20" as="geometry" />
        </mxCell>
        <mxCell id="l-n8Nsm_BFb_VGwomjxH-0" style="edgeStyle=orthogonalEdgeStyle;rounded=0;orthogonalLoop=1;jettySize=auto;html=1;exitX=1;exitY=0.5;exitDx=0;exitDy=0;fontSize=15;fontColor=#000000;startSize=0;strokeWidth=2;entryX=0.552;entryY=-0.005;entryDx=0;entryDy=0;entryPerimeter=0;" edge="1" parent="jS1sA1JP-IGQIhZOZ2VB-1" source="jS1sA1JP-IGQIhZOZ2VB-36" target="jS1sA1JP-IGQIhZOZ2VB-57">
          <mxGeometry relative="1" as="geometry">
            <mxPoint x="2310" y="1350" as="targetPoint" />
          </mxGeometry>
        </mxCell>
        <mxCell id="l-n8Nsm_BFb_VGwomjxH-1" value="5、准备提交事务&lt;br&gt;将redo日志写入磁盘文件" style="edgeLabel;html=1;align=center;verticalAlign=middle;resizable=0;points=[];fontSize=15;fontColor=#000000;" vertex="1" connectable="0" parent="l-n8Nsm_BFb_VGwomjxH-0">
          <mxGeometry x="0.6146" y="-1" relative="1" as="geometry">
            <mxPoint as="offset" />
          </mxGeometry>
        </mxCell>
        <mxCell id="jS1sA1JP-IGQIhZOZ2VB-36" value="&lt;b&gt;&lt;font style=&quot;font-size: 15px&quot;&gt;Redo Log Buffer&lt;/font&gt;&lt;/b&gt;" style="rounded=0;whiteSpace=wrap;html=1;fontSize=14;startSize=0;strokeColor=#000000;strokeWidth=2;fillColor=#99FF99;" vertex="1" parent="jS1sA1JP-IGQIhZOZ2VB-1">
          <mxGeometry x="2120" y="1030" width="150" height="80" as="geometry" />
        </mxCell>
        <mxCell id="jS1sA1JP-IGQIhZOZ2VB-39" value="……" style="text;html=1;strokeColor=none;fillColor=none;align=center;verticalAlign=middle;whiteSpace=wrap;rounded=0;fontSize=14;startSize=0;fontStyle=1" vertex="1" parent="jS1sA1JP-IGQIhZOZ2VB-1">
          <mxGeometry x="1880" y="1140" width="40" height="10" as="geometry" />
        </mxCell>
        <mxCell id="jS1sA1JP-IGQIhZOZ2VB-44" value="" style="edgeStyle=none;rounded=0;orthogonalLoop=1;jettySize=auto;html=1;fontSize=15;startSize=0;strokeWidth=2;" edge="1" parent="jS1sA1JP-IGQIhZOZ2VB-1" source="jS1sA1JP-IGQIhZOZ2VB-40">
          <mxGeometry relative="1" as="geometry">
            <mxPoint x="1899" y="1180" as="targetPoint" />
            <Array as="points" />
          </mxGeometry>
        </mxCell>
        <mxCell id="jS1sA1JP-IGQIhZOZ2VB-45" value="1、将数据加载到缓&lt;br&gt;冲池中加载id为1的记&lt;br&gt;录所在页的所有数据" style="edgeLabel;html=1;align=center;verticalAlign=middle;resizable=0;points=[];fontSize=15;" vertex="1" connectable="0" parent="jS1sA1JP-IGQIhZOZ2VB-44">
          <mxGeometry x="-0.4273" y="-2" relative="1" as="geometry">
            <mxPoint x="2" y="-13" as="offset" />
          </mxGeometry>
        </mxCell>
        <mxCell id="jS1sA1JP-IGQIhZOZ2VB-40" value="" style="rounded=0;whiteSpace=wrap;html=1;fontSize=14;startSize=0;strokeColor=#000000;strokeWidth=2;fillColor=#9999FF;" vertex="1" parent="jS1sA1JP-IGQIhZOZ2VB-1">
          <mxGeometry x="1710" y="1350" width="380" height="170" as="geometry" />
        </mxCell>
        <mxCell id="jS1sA1JP-IGQIhZOZ2VB-41" value="磁盘文件(idb)" style="text;html=1;strokeColor=none;fillColor=none;align=center;verticalAlign=middle;whiteSpace=wrap;rounded=0;fontSize=15;startSize=0;fontStyle=1" vertex="1" parent="jS1sA1JP-IGQIhZOZ2VB-1">
          <mxGeometry x="1850" y="1360" width="95" height="20" as="geometry" />
        </mxCell>
        <mxCell id="jS1sA1JP-IGQIhZOZ2VB-42" value="page&lt;br&gt;&lt;font color=&quot;#990000&quot;&gt;name=zhangsan&lt;/font&gt;&lt;br&gt;......" style="rounded=0;whiteSpace=wrap;html=1;fontSize=15;startSize=0;strokeColor=#000000;strokeWidth=2;fillColor=#FFCE9F;" vertex="1" parent="jS1sA1JP-IGQIhZOZ2VB-1">
          <mxGeometry x="1720" y="1410" width="170" height="90" as="geometry" />
        </mxCell>
        <mxCell id="jS1sA1JP-IGQIhZOZ2VB-43" value="page&lt;br&gt;......" style="rounded=0;whiteSpace=wrap;html=1;fontSize=15;startSize=0;strokeColor=#000000;strokeWidth=2;fillColor=#FFCE9F;" vertex="1" parent="jS1sA1JP-IGQIhZOZ2VB-1">
          <mxGeometry x="1905" y="1410" width="170" height="90" as="geometry" />
        </mxCell>
        <mxCell id="jS1sA1JP-IGQIhZOZ2VB-48" value="" style="group" vertex="1" connectable="0" parent="jS1sA1JP-IGQIhZOZ2VB-1">
          <mxGeometry x="1390" y="1350" width="240" height="120" as="geometry" />
        </mxCell>
        <mxCell id="jS1sA1JP-IGQIhZOZ2VB-46" value="&lt;font color=&quot;#990000&quot;&gt;&lt;b&gt;name=zhangsan&lt;/b&gt;&lt;/font&gt;" style="rounded=0;whiteSpace=wrap;html=1;fontSize=15;startSize=0;strokeColor=#000000;strokeWidth=2;fillColor=#9999FF;" vertex="1" parent="jS1sA1JP-IGQIhZOZ2VB-48">
          <mxGeometry width="240" height="120" as="geometry" />
        </mxCell>
        <mxCell id="jS1sA1JP-IGQIhZOZ2VB-47" value="undo日志文件&lt;br&gt;（InnoDB引擎特有）" style="text;html=1;strokeColor=none;fillColor=none;align=center;verticalAlign=middle;whiteSpace=wrap;rounded=0;fontSize=15;startSize=0;fontStyle=1" vertex="1" parent="jS1sA1JP-IGQIhZOZ2VB-48">
          <mxGeometry x="45" y="10" width="150" height="20" as="geometry" />
        </mxCell>
        <mxCell id="jS1sA1JP-IGQIhZOZ2VB-61" value="" style="group" vertex="1" connectable="0" parent="jS1sA1JP-IGQIhZOZ2VB-1">
          <mxGeometry x="2190" y="1350" width="245" height="125" as="geometry" />
        </mxCell>
        <mxCell id="jS1sA1JP-IGQIhZOZ2VB-57" value="&lt;b&gt;&lt;font color=&quot;#cc0000&quot;&gt;name=zhangsan666&lt;/font&gt;&lt;/b&gt;" style="rounded=0;whiteSpace=wrap;html=1;fontSize=15;fontColor=#000000;startSize=0;strokeColor=#000000;strokeWidth=2;fillColor=#9999FF;" vertex="1" parent="jS1sA1JP-IGQIhZOZ2VB-61">
          <mxGeometry width="245.00000000000003" height="125" as="geometry" />
        </mxCell>
        <mxCell id="jS1sA1JP-IGQIhZOZ2VB-58" value="redo日志文件&lt;br&gt;（InnoDB存储引擎特有）" style="text;html=1;strokeColor=none;fillColor=none;align=center;verticalAlign=middle;whiteSpace=wrap;rounded=0;fontSize=15;fontColor=#000000;startSize=0;" vertex="1" parent="jS1sA1JP-IGQIhZOZ2VB-61">
          <mxGeometry x="33.177083333333336" y="10" width="178.64583333333334" height="20" as="geometry" />
        </mxCell>
        <mxCell id="jS1sA1JP-IGQIhZOZ2VB-59" style="edgeStyle=orthogonalEdgeStyle;rounded=0;orthogonalLoop=1;jettySize=auto;html=1;exitX=0.5;exitY=1;exitDx=0;exitDy=0;fontSize=15;fontColor=#000000;startSize=0;strokeWidth=2;" edge="1" parent="jS1sA1JP-IGQIhZOZ2VB-61" source="jS1sA1JP-IGQIhZOZ2VB-58" target="jS1sA1JP-IGQIhZOZ2VB-58">
          <mxGeometry relative="1" as="geometry" />
        </mxCell>
        <mxCell id="l-n8Nsm_BFb_VGwomjxH-2" value="" style="group" vertex="1" connectable="0" parent="jS1sA1JP-IGQIhZOZ2VB-1">
          <mxGeometry x="2530" y="1350" width="245" height="125" as="geometry" />
        </mxCell>
        <mxCell id="l-n8Nsm_BFb_VGwomjxH-3" value="&lt;b&gt;&lt;font color=&quot;#cc0000&quot;&gt;name=zhangsan666&lt;/font&gt;&lt;/b&gt;" style="rounded=0;whiteSpace=wrap;html=1;fontSize=15;fontColor=#000000;startSize=0;strokeColor=#000000;strokeWidth=2;fillColor=#9999FF;" vertex="1" parent="l-n8Nsm_BFb_VGwomjxH-2">
          <mxGeometry width="245.00000000000003" height="125" as="geometry" />
        </mxCell>
        <mxCell id="l-n8Nsm_BFb_VGwomjxH-4" value="binlog日志文件&lt;br&gt;（属于Server层）" style="text;html=1;strokeColor=none;fillColor=none;align=center;verticalAlign=middle;whiteSpace=wrap;rounded=0;fontSize=15;fontColor=#000000;startSize=0;" vertex="1" parent="l-n8Nsm_BFb_VGwomjxH-2">
          <mxGeometry x="33.177083333333336" y="10" width="178.64583333333334" height="20" as="geometry" />
        </mxCell>
        <mxCell id="l-n8Nsm_BFb_VGwomjxH-5" style="edgeStyle=orthogonalEdgeStyle;rounded=0;orthogonalLoop=1;jettySize=auto;html=1;exitX=0.5;exitY=1;exitDx=0;exitDy=0;fontSize=15;fontColor=#000000;startSize=0;strokeWidth=2;" edge="1" parent="l-n8Nsm_BFb_VGwomjxH-2" source="l-n8Nsm_BFb_VGwomjxH-4" target="l-n8Nsm_BFb_VGwomjxH-4">
          <mxGeometry relative="1" as="geometry" />
        </mxCell>
        <mxCell id="l-n8Nsm_BFb_VGwomjxH-8" style="edgeStyle=orthogonalEdgeStyle;rounded=0;orthogonalLoop=1;jettySize=auto;html=1;exitX=0.5;exitY=1;exitDx=0;exitDy=0;entryX=0.5;entryY=1;entryDx=0;entryDy=0;fontSize=15;fontColor=#000000;startSize=0;strokeWidth=2;" edge="1" parent="jS1sA1JP-IGQIhZOZ2VB-1" source="l-n8Nsm_BFb_VGwomjxH-3" target="jS1sA1JP-IGQIhZOZ2VB-57">
          <mxGeometry relative="1" as="geometry">
            <Array as="points">
              <mxPoint x="2653" y="1540" />
              <mxPoint x="2313" y="1540" />
            </Array>
          </mxGeometry>
        </mxCell>
        <mxCell id="l-n8Nsm_BFb_VGwomjxH-9" value="7、commit标记写入redo日志文件中&lt;br&gt;事务提交完成，这样做的目的是&lt;br&gt;为了确保事务提交之后redo日志文件&lt;br&gt;和binlog日志文件的一致性" style="edgeLabel;html=1;align=center;verticalAlign=middle;resizable=0;points=[];fontSize=15;fontColor=#000000;" vertex="1" connectable="0" parent="l-n8Nsm_BFb_VGwomjxH-8">
          <mxGeometry x="-0.0901" relative="1" as="geometry">
            <mxPoint as="offset" />
          </mxGeometry>
        </mxCell>
        <mxCell id="l-n8Nsm_BFb_VGwomjxH-13" style="edgeStyle=orthogonalEdgeStyle;rounded=0;orthogonalLoop=1;jettySize=auto;html=1;exitX=0.5;exitY=1;exitDx=0;exitDy=0;entryX=1;entryY=0.5;entryDx=0;entryDy=0;fontSize=15;fontColor=#000000;startSize=0;strokeWidth=2;" edge="1" parent="jS1sA1JP-IGQIhZOZ2VB-1" source="l-n8Nsm_BFb_VGwomjxH-10" target="jS1sA1JP-IGQIhZOZ2VB-40">
          <mxGeometry relative="1" as="geometry">
            <Array as="points">
              <mxPoint x="2110" y="1435" />
            </Array>
          </mxGeometry>
        </mxCell>
        <mxCell id="l-n8Nsm_BFb_VGwomjxH-14" value="8、将数据随机写入磁盘文件&lt;br&gt;以Page为单位写入&lt;br&gt;这步操作完成之后磁盘里的数据&lt;br&gt;变为了name=zhangsan666" style="edgeLabel;html=1;align=center;verticalAlign=middle;resizable=0;points=[];fontSize=15;fontColor=#000000;" vertex="1" connectable="0" parent="l-n8Nsm_BFb_VGwomjxH-13">
          <mxGeometry x="-0.4222" y="-1" relative="1" as="geometry">
            <mxPoint as="offset" />
          </mxGeometry>
        </mxCell>
        <mxCell id="l-n8Nsm_BFb_VGwomjxH-10" value="磁盘IO线程" style="ellipse;whiteSpace=wrap;html=1;fontSize=15;fontColor=#000000;startSize=0;strokeColor=#000000;strokeWidth=2;fillColor=#FF66B3;" vertex="1" parent="jS1sA1JP-IGQIhZOZ2VB-1">
          <mxGeometry x="2060" y="1170" width="100" height="60" as="geometry" />
        </mxCell>
        <mxCell id="l-n8Nsm_BFb_VGwomjxH-17" style="edgeStyle=none;rounded=0;orthogonalLoop=1;jettySize=auto;html=1;exitX=1;exitY=0.5;exitDx=0;exitDy=0;entryX=0.003;entryY=0.2;entryDx=0;entryDy=0;entryPerimeter=0;fontSize=15;fontColor=#000000;startSize=0;strokeWidth=2;strokeColor=#CC0000;" edge="1" parent="jS1sA1JP-IGQIhZOZ2VB-1" source="l-n8Nsm_BFb_VGwomjxH-15" target="jS1sA1JP-IGQIhZOZ2VB-29">
          <mxGeometry relative="1" as="geometry" />
        </mxCell>
        <mxCell id="l-n8Nsm_BFb_VGwomjxH-15" value="&lt;b&gt;&lt;font color=&quot;#cc0000&quot;&gt;数据库的增删改查都是直接操作buffer Pool，buffer Pool一般设置为机器内存的60%左右&lt;/font&gt;&lt;/b&gt;" style="text;html=1;strokeColor=none;fillColor=none;align=center;verticalAlign=middle;whiteSpace=wrap;rounded=0;fontSize=15;fontColor=#000000;startSize=0;" vertex="1" parent="jS1sA1JP-IGQIhZOZ2VB-1">
          <mxGeometry x="1380" y="880" width="230" height="100" as="geometry" />
        </mxCell>
        <mxCell id="l-n8Nsm_BFb_VGwomjxH-22" style="edgeStyle=none;rounded=0;orthogonalLoop=1;jettySize=auto;html=1;exitX=0.25;exitY=0;exitDx=0;exitDy=0;entryX=0.25;entryY=1;entryDx=0;entryDy=0;fontSize=15;fontColor=#000000;startSize=0;strokeColor=#CC0000;strokeWidth=2;" edge="1" parent="jS1sA1JP-IGQIhZOZ2VB-1" source="l-n8Nsm_BFb_VGwomjxH-21" target="jS1sA1JP-IGQIhZOZ2VB-57">
          <mxGeometry relative="1" as="geometry" />
        </mxCell>
        <mxCell id="l-n8Nsm_BFb_VGwomjxH-21" value="如果事务提交成功，buffer pool里的数据还没有来得及写入磁盘，此时系统宕机了，可以用redo日志里的数据恢复buffer pool里的缓冲数据" style="rounded=1;whiteSpace=wrap;html=1;fontSize=15;fontColor=#000000;startSize=0;strokeColor=#000000;strokeWidth=2;fillColor=#FFF2CC;" vertex="1" parent="jS1sA1JP-IGQIhZOZ2VB-1">
          <mxGeometry x="2010" y="1680" width="477" height="110" as="geometry" />
        </mxCell>
        <mxCell id="l-n8Nsm_BFb_VGwomjxH-24" style="edgeStyle=none;rounded=0;orthogonalLoop=1;jettySize=auto;html=1;exitX=0.25;exitY=0;exitDx=0;exitDy=0;fontSize=15;fontColor=#000000;startSize=0;strokeColor=#CC0000;strokeWidth=2;" edge="1" parent="jS1sA1JP-IGQIhZOZ2VB-1" source="l-n8Nsm_BFb_VGwomjxH-23">
          <mxGeometry relative="1" as="geometry">
            <mxPoint x="2780" y="1440" as="targetPoint" />
          </mxGeometry>
        </mxCell>
        <mxCell id="l-n8Nsm_BFb_VGwomjxH-23" value="binlog主要用来恢复数据库磁盘里的数据" style="rounded=1;whiteSpace=wrap;html=1;fontSize=15;fontColor=#000000;startSize=0;strokeColor=#000000;strokeWidth=2;fillColor=#FFF2CC;" vertex="1" parent="jS1sA1JP-IGQIhZOZ2VB-1">
          <mxGeometry x="2890" y="1590" width="410" height="100" as="geometry" />
        </mxCell>
        <mxCell id="l-n8Nsm_BFb_VGwomjxH-28" style="edgeStyle=none;rounded=0;orthogonalLoop=1;jettySize=auto;html=1;exitX=0.75;exitY=1;exitDx=0;exitDy=0;entryX=0;entryY=0.5;entryDx=0;entryDy=0;fontSize=15;fontColor=#000000;startSize=0;strokeColor=#CC0000;strokeWidth=2;" edge="1" parent="jS1sA1JP-IGQIhZOZ2VB-1" source="l-n8Nsm_BFb_VGwomjxH-27" target="jS1sA1JP-IGQIhZOZ2VB-46">
          <mxGeometry relative="1" as="geometry" />
        </mxCell>
        <mxCell id="l-n8Nsm_BFb_VGwomjxH-27" value="&lt;b&gt;如果事务提交失败要回滚数据，可以用undo日志里的数据恢复buffer pool里的缓存数据&lt;/b&gt;" style="rounded=1;whiteSpace=wrap;html=1;fontSize=15;fontColor=#000000;startSize=0;strokeColor=#000000;strokeWidth=2;fillColor=#FFF2CC;" vertex="1" parent="jS1sA1JP-IGQIhZOZ2VB-1">
          <mxGeometry x="970" y="1200" width="330" height="90" as="geometry" />
        </mxCell>
      </root>
    </mxGraphModel>
  </diagram>
</mxfile>
